%TF.GenerationSoftware,KiCad,Pcbnew,8.0.6*%
%TF.CreationDate,2025-05-20T21:52:47-05:00*%
%TF.ProjectId,HatRatV2,48617452-6174-4563-922e-6b696361645f,rev?*%
%TF.SameCoordinates,Original*%
%TF.FileFunction,Soldermask,Top*%
%TF.FilePolarity,Negative*%
%FSLAX46Y46*%
G04 Gerber Fmt 4.6, Leading zero omitted, Abs format (unit mm)*
G04 Created by KiCad (PCBNEW 8.0.6) date 2025-05-20 21:52:47*
%MOMM*%
%LPD*%
G01*
G04 APERTURE LIST*
G04 Aperture macros list*
%AMRoundRect*
0 Rectangle with rounded corners*
0 $1 Rounding radius*
0 $2 $3 $4 $5 $6 $7 $8 $9 X,Y pos of 4 corners*
0 Add a 4 corners polygon primitive as box body*
4,1,4,$2,$3,$4,$5,$6,$7,$8,$9,$2,$3,0*
0 Add four circle primitives for the rounded corners*
1,1,$1+$1,$2,$3*
1,1,$1+$1,$4,$5*
1,1,$1+$1,$6,$7*
1,1,$1+$1,$8,$9*
0 Add four rect primitives between the rounded corners*
20,1,$1+$1,$2,$3,$4,$5,0*
20,1,$1+$1,$4,$5,$6,$7,0*
20,1,$1+$1,$6,$7,$8,$9,0*
20,1,$1+$1,$8,$9,$2,$3,0*%
G04 Aperture macros list end*
%ADD10O,2.000000X1.200000*%
%ADD11O,1.200000X2.000000*%
%ADD12R,1.752600X1.752600*%
%ADD13C,1.752600*%
%ADD14C,1.728000*%
%ADD15RoundRect,0.102000X0.762000X0.762000X-0.762000X0.762000X-0.762000X-0.762000X0.762000X-0.762000X0*%
%ADD16R,1.500000X2.300000*%
%ADD17O,1.500000X2.300000*%
%ADD18R,1.700000X1.700000*%
%ADD19O,1.700000X1.700000*%
G04 APERTURE END LIST*
D10*
%TO.C,SW1*%
X200660000Y-36830000D03*
X200660000Y-34290000D03*
X200660000Y-31750000D03*
%TD*%
D11*
%TO.C,MPU1*%
X220345000Y-68430000D03*
X217805000Y-68430000D03*
X215265000Y-68430000D03*
X212725000Y-68430000D03*
X210185000Y-68430000D03*
X207645000Y-68430000D03*
X205105000Y-68430000D03*
X202565000Y-68430000D03*
%TD*%
D10*
%TO.C,QMC5883L1*%
X216955000Y-71425000D03*
X216955000Y-73965000D03*
X216955000Y-76505000D03*
X216955000Y-79045000D03*
X216955000Y-81585000D03*
%TD*%
D12*
%TO.C,U1*%
X205105000Y-37465000D03*
D13*
X205105000Y-40005000D03*
X205105000Y-42545000D03*
X205105000Y-45085000D03*
X205105000Y-47625000D03*
X205105000Y-50165000D03*
X205105000Y-52705000D03*
X205105000Y-55245000D03*
X205105000Y-57785000D03*
X205105000Y-60325000D03*
X205105000Y-62865000D03*
X205105000Y-65405000D03*
X220345000Y-65405000D03*
X220345000Y-62865000D03*
X220345000Y-60325000D03*
X220345000Y-57785000D03*
X220345000Y-55245000D03*
X220345000Y-52705000D03*
X220345000Y-50165000D03*
X220345000Y-47625000D03*
X220345000Y-45085000D03*
X220345000Y-42545000D03*
X220345000Y-40005000D03*
X220345000Y-37465000D03*
%TD*%
D14*
%TO.C,U3*%
X207645000Y-43180000D03*
X217805000Y-43180000D03*
X207645000Y-45720000D03*
D15*
X207645000Y-50800000D03*
D14*
X207645000Y-48260000D03*
X207645000Y-40640000D03*
X207645000Y-38100000D03*
X217805000Y-45720000D03*
D15*
X217805000Y-50800000D03*
D14*
X217805000Y-48260000D03*
X217805000Y-40640000D03*
X217805000Y-38100000D03*
%TD*%
D16*
%TO.C,U2*%
X215275000Y-64590000D03*
D17*
X212775000Y-64590000D03*
X210275000Y-64540000D03*
%TD*%
D18*
%TO.C,J1*%
X200660000Y-55880000D03*
D19*
X200660000Y-58420000D03*
X200660000Y-60960000D03*
X200660000Y-63500000D03*
%TD*%
M02*
