M48
; DRILL file {KiCad 8.0.6} date 2025-05-20T21:52:50-0500
; FORMAT={-:-/ absolute / inch / decimal}
; #@! TF.CreationDate,2025-05-20T21:52:50-05:00
; #@! TF.GenerationSoftware,Kicad,Pcbnew,8.0.6
; #@! TF.FileFunction,Plated,1,2,PTH
FMAT,2
INCH
; #@! TA.AperFunction,Plated,PTH,ComponentDrill
T1C0.0315
; #@! TA.AperFunction,Plated,PTH,ComponentDrill
T2C0.0394
; #@! TA.AperFunction,Plated,PTH,ComponentDrill
T3C0.0400
; #@! TA.AperFunction,Plated,PTH,ComponentDrill
T4C0.0430
%
G90
G05
T1
X7.9Y-1.25
X7.9Y-1.35
X7.9Y-1.45
X7.975Y-2.6941
X8.075Y-2.6941
X8.175Y-2.6941
X8.275Y-2.6941
X8.375Y-2.6941
X8.475Y-2.6941
X8.5415Y-2.812
X8.5415Y-2.912
X8.5415Y-3.012
X8.5415Y-3.112
X8.5415Y-3.212
X8.575Y-2.6941
X8.675Y-2.6941
T2
X7.9Y-2.2
X7.9Y-2.3
X7.9Y-2.4
X7.9Y-2.5
X8.2785Y-2.5409
X8.377Y-2.5429
X8.4754Y-2.5429
T3
X8.175Y-1.5
X8.175Y-1.6
X8.175Y-1.7
X8.175Y-1.8
X8.175Y-1.9
X8.175Y-2.0
X8.575Y-1.5
X8.575Y-1.6
X8.575Y-1.7
X8.575Y-1.8
X8.575Y-1.9
X8.575Y-2.0
T4
X8.075Y-1.475
X8.075Y-1.575
X8.075Y-1.675
X8.075Y-1.775
X8.075Y-1.875
X8.075Y-1.975
X8.075Y-2.075
X8.075Y-2.175
X8.075Y-2.275
X8.075Y-2.375
X8.075Y-2.475
X8.075Y-2.575
X8.675Y-1.475
X8.675Y-1.575
X8.675Y-1.675
X8.675Y-1.775
X8.675Y-1.875
X8.675Y-1.975
X8.675Y-2.075
X8.675Y-2.175
X8.675Y-2.275
X8.675Y-2.375
X8.675Y-2.475
X8.675Y-2.575
M30
