%TF.GenerationSoftware,KiCad,Pcbnew,8.0.6*%
%TF.CreationDate,2025-05-20T21:52:46-05:00*%
%TF.ProjectId,HatRatV2,48617452-6174-4563-922e-6b696361645f,rev?*%
%TF.SameCoordinates,Original*%
%TF.FileFunction,Legend,Top*%
%TF.FilePolarity,Positive*%
%FSLAX46Y46*%
G04 Gerber Fmt 4.6, Leading zero omitted, Abs format (unit mm)*
G04 Created by KiCad (PCBNEW 8.0.6) date 2025-05-20 21:52:46*
%MOMM*%
%LPD*%
G01*
G04 APERTURE LIST*
%ADD10C,0.150000*%
%ADD11C,0.100000*%
%ADD12C,0.203200*%
%ADD13C,0.125000*%
%ADD14C,0.381000*%
%ADD15C,0.127000*%
%ADD16C,0.120000*%
%ADD17R,1.752600X1.752600*%
%ADD18C,1.752600*%
G04 APERTURE END LIST*
D10*
X204267200Y-35623332D02*
X204314819Y-35480475D01*
X204314819Y-35480475D02*
X204314819Y-35242380D01*
X204314819Y-35242380D02*
X204267200Y-35147142D01*
X204267200Y-35147142D02*
X204219580Y-35099523D01*
X204219580Y-35099523D02*
X204124342Y-35051904D01*
X204124342Y-35051904D02*
X204029104Y-35051904D01*
X204029104Y-35051904D02*
X203933866Y-35099523D01*
X203933866Y-35099523D02*
X203886247Y-35147142D01*
X203886247Y-35147142D02*
X203838628Y-35242380D01*
X203838628Y-35242380D02*
X203791009Y-35432856D01*
X203791009Y-35432856D02*
X203743390Y-35528094D01*
X203743390Y-35528094D02*
X203695771Y-35575713D01*
X203695771Y-35575713D02*
X203600533Y-35623332D01*
X203600533Y-35623332D02*
X203505295Y-35623332D01*
X203505295Y-35623332D02*
X203410057Y-35575713D01*
X203410057Y-35575713D02*
X203362438Y-35528094D01*
X203362438Y-35528094D02*
X203314819Y-35432856D01*
X203314819Y-35432856D02*
X203314819Y-35194761D01*
X203314819Y-35194761D02*
X203362438Y-35051904D01*
X203314819Y-34718570D02*
X204314819Y-34480475D01*
X204314819Y-34480475D02*
X203600533Y-34289999D01*
X203600533Y-34289999D02*
X204314819Y-34099523D01*
X204314819Y-34099523D02*
X203314819Y-33861428D01*
X204314819Y-32956666D02*
X204314819Y-33528094D01*
X204314819Y-33242380D02*
X203314819Y-33242380D01*
X203314819Y-33242380D02*
X203457676Y-33337618D01*
X203457676Y-33337618D02*
X203552914Y-33432856D01*
X203552914Y-33432856D02*
X203600533Y-33528094D01*
X200909819Y-76763332D02*
X199909819Y-76763332D01*
X199909819Y-76763332D02*
X200624104Y-76429999D01*
X200624104Y-76429999D02*
X199909819Y-76096666D01*
X199909819Y-76096666D02*
X200909819Y-76096666D01*
X200909819Y-75620475D02*
X199909819Y-75620475D01*
X199909819Y-75620475D02*
X199909819Y-75239523D01*
X199909819Y-75239523D02*
X199957438Y-75144285D01*
X199957438Y-75144285D02*
X200005057Y-75096666D01*
X200005057Y-75096666D02*
X200100295Y-75049047D01*
X200100295Y-75049047D02*
X200243152Y-75049047D01*
X200243152Y-75049047D02*
X200338390Y-75096666D01*
X200338390Y-75096666D02*
X200386009Y-75144285D01*
X200386009Y-75144285D02*
X200433628Y-75239523D01*
X200433628Y-75239523D02*
X200433628Y-75620475D01*
X199909819Y-74620475D02*
X200719342Y-74620475D01*
X200719342Y-74620475D02*
X200814580Y-74572856D01*
X200814580Y-74572856D02*
X200862200Y-74525237D01*
X200862200Y-74525237D02*
X200909819Y-74429999D01*
X200909819Y-74429999D02*
X200909819Y-74239523D01*
X200909819Y-74239523D02*
X200862200Y-74144285D01*
X200862200Y-74144285D02*
X200814580Y-74096666D01*
X200814580Y-74096666D02*
X200719342Y-74049047D01*
X200719342Y-74049047D02*
X199909819Y-74049047D01*
X200909819Y-73049047D02*
X200909819Y-73620475D01*
X200909819Y-73334761D02*
X199909819Y-73334761D01*
X199909819Y-73334761D02*
X200052676Y-73429999D01*
X200052676Y-73429999D02*
X200147914Y-73525237D01*
X200147914Y-73525237D02*
X200195533Y-73620475D01*
D11*
X202082580Y-69733884D02*
X203082580Y-69733884D01*
X202082580Y-70210074D02*
X203082580Y-70210074D01*
X203082580Y-70210074D02*
X202082580Y-70781502D01*
X202082580Y-70781502D02*
X203082580Y-70781502D01*
X203082580Y-71114836D02*
X203082580Y-71686264D01*
X202082580Y-71400550D02*
X203082580Y-71400550D01*
X208082580Y-69638646D02*
X207082580Y-70305312D01*
X208082580Y-70305312D02*
X207082580Y-69638646D01*
X207177819Y-71257693D02*
X207130200Y-71210074D01*
X207130200Y-71210074D02*
X207082580Y-71067217D01*
X207082580Y-71067217D02*
X207082580Y-70971979D01*
X207082580Y-70971979D02*
X207130200Y-70829122D01*
X207130200Y-70829122D02*
X207225438Y-70733884D01*
X207225438Y-70733884D02*
X207320676Y-70686265D01*
X207320676Y-70686265D02*
X207511152Y-70638646D01*
X207511152Y-70638646D02*
X207654009Y-70638646D01*
X207654009Y-70638646D02*
X207844485Y-70686265D01*
X207844485Y-70686265D02*
X207939723Y-70733884D01*
X207939723Y-70733884D02*
X208034961Y-70829122D01*
X208034961Y-70829122D02*
X208082580Y-70971979D01*
X208082580Y-70971979D02*
X208082580Y-71067217D01*
X208082580Y-71067217D02*
X208034961Y-71210074D01*
X208034961Y-71210074D02*
X207987342Y-71257693D01*
X207082580Y-72162455D02*
X207082580Y-71686265D01*
X207082580Y-71686265D02*
X208082580Y-71686265D01*
X220832580Y-69591027D02*
X219832580Y-69924360D01*
X219832580Y-69924360D02*
X220832580Y-70257693D01*
X219927819Y-71162455D02*
X219880200Y-71114836D01*
X219880200Y-71114836D02*
X219832580Y-70971979D01*
X219832580Y-70971979D02*
X219832580Y-70876741D01*
X219832580Y-70876741D02*
X219880200Y-70733884D01*
X219880200Y-70733884D02*
X219975438Y-70638646D01*
X219975438Y-70638646D02*
X220070676Y-70591027D01*
X220070676Y-70591027D02*
X220261152Y-70543408D01*
X220261152Y-70543408D02*
X220404009Y-70543408D01*
X220404009Y-70543408D02*
X220594485Y-70591027D01*
X220594485Y-70591027D02*
X220689723Y-70638646D01*
X220689723Y-70638646D02*
X220784961Y-70733884D01*
X220784961Y-70733884D02*
X220832580Y-70876741D01*
X220832580Y-70876741D02*
X220832580Y-70971979D01*
X220832580Y-70971979D02*
X220784961Y-71114836D01*
X220784961Y-71114836D02*
X220737342Y-71162455D01*
X219927819Y-72162455D02*
X219880200Y-72114836D01*
X219880200Y-72114836D02*
X219832580Y-71971979D01*
X219832580Y-71971979D02*
X219832580Y-71876741D01*
X219832580Y-71876741D02*
X219880200Y-71733884D01*
X219880200Y-71733884D02*
X219975438Y-71638646D01*
X219975438Y-71638646D02*
X220070676Y-71591027D01*
X220070676Y-71591027D02*
X220261152Y-71543408D01*
X220261152Y-71543408D02*
X220404009Y-71543408D01*
X220404009Y-71543408D02*
X220594485Y-71591027D01*
X220594485Y-71591027D02*
X220689723Y-71638646D01*
X220689723Y-71638646D02*
X220784961Y-71733884D01*
X220784961Y-71733884D02*
X220832580Y-71876741D01*
X220832580Y-71876741D02*
X220832580Y-71971979D01*
X220832580Y-71971979D02*
X220784961Y-72114836D01*
X220784961Y-72114836D02*
X220737342Y-72162455D01*
X218284961Y-70257693D02*
X218332580Y-70162455D01*
X218332580Y-70162455D02*
X218332580Y-70019598D01*
X218332580Y-70019598D02*
X218284961Y-69876741D01*
X218284961Y-69876741D02*
X218189723Y-69781503D01*
X218189723Y-69781503D02*
X218094485Y-69733884D01*
X218094485Y-69733884D02*
X217904009Y-69686265D01*
X217904009Y-69686265D02*
X217761152Y-69686265D01*
X217761152Y-69686265D02*
X217570676Y-69733884D01*
X217570676Y-69733884D02*
X217475438Y-69781503D01*
X217475438Y-69781503D02*
X217380200Y-69876741D01*
X217380200Y-69876741D02*
X217332580Y-70019598D01*
X217332580Y-70019598D02*
X217332580Y-70114836D01*
X217332580Y-70114836D02*
X217380200Y-70257693D01*
X217380200Y-70257693D02*
X217427819Y-70305312D01*
X217427819Y-70305312D02*
X217761152Y-70305312D01*
X217761152Y-70305312D02*
X217761152Y-70114836D01*
X217332580Y-70733884D02*
X218332580Y-70733884D01*
X218332580Y-70733884D02*
X217332580Y-71305312D01*
X217332580Y-71305312D02*
X218332580Y-71305312D01*
X217332580Y-71781503D02*
X218332580Y-71781503D01*
X218332580Y-71781503D02*
X218332580Y-72019598D01*
X218332580Y-72019598D02*
X218284961Y-72162455D01*
X218284961Y-72162455D02*
X218189723Y-72257693D01*
X218189723Y-72257693D02*
X218094485Y-72305312D01*
X218094485Y-72305312D02*
X217904009Y-72352931D01*
X217904009Y-72352931D02*
X217761152Y-72352931D01*
X217761152Y-72352931D02*
X217570676Y-72305312D01*
X217570676Y-72305312D02*
X217475438Y-72257693D01*
X217475438Y-72257693D02*
X217380200Y-72162455D01*
X217380200Y-72162455D02*
X217332580Y-72019598D01*
X217332580Y-72019598D02*
X217332580Y-71781503D01*
X212380200Y-69686265D02*
X212332580Y-69829122D01*
X212332580Y-69829122D02*
X212332580Y-70067217D01*
X212332580Y-70067217D02*
X212380200Y-70162455D01*
X212380200Y-70162455D02*
X212427819Y-70210074D01*
X212427819Y-70210074D02*
X212523057Y-70257693D01*
X212523057Y-70257693D02*
X212618295Y-70257693D01*
X212618295Y-70257693D02*
X212713533Y-70210074D01*
X212713533Y-70210074D02*
X212761152Y-70162455D01*
X212761152Y-70162455D02*
X212808771Y-70067217D01*
X212808771Y-70067217D02*
X212856390Y-69876741D01*
X212856390Y-69876741D02*
X212904009Y-69781503D01*
X212904009Y-69781503D02*
X212951628Y-69733884D01*
X212951628Y-69733884D02*
X213046866Y-69686265D01*
X213046866Y-69686265D02*
X213142104Y-69686265D01*
X213142104Y-69686265D02*
X213237342Y-69733884D01*
X213237342Y-69733884D02*
X213284961Y-69781503D01*
X213284961Y-69781503D02*
X213332580Y-69876741D01*
X213332580Y-69876741D02*
X213332580Y-70114836D01*
X213332580Y-70114836D02*
X213284961Y-70257693D01*
X212332580Y-70686265D02*
X213332580Y-70686265D01*
X213332580Y-70686265D02*
X213332580Y-70924360D01*
X213332580Y-70924360D02*
X213284961Y-71067217D01*
X213284961Y-71067217D02*
X213189723Y-71162455D01*
X213189723Y-71162455D02*
X213094485Y-71210074D01*
X213094485Y-71210074D02*
X212904009Y-71257693D01*
X212904009Y-71257693D02*
X212761152Y-71257693D01*
X212761152Y-71257693D02*
X212570676Y-71210074D01*
X212570676Y-71210074D02*
X212475438Y-71162455D01*
X212475438Y-71162455D02*
X212380200Y-71067217D01*
X212380200Y-71067217D02*
X212332580Y-70924360D01*
X212332580Y-70924360D02*
X212332580Y-70686265D01*
X212618295Y-71638646D02*
X212618295Y-72114836D01*
X212332580Y-71543408D02*
X213332580Y-71876741D01*
X213332580Y-71876741D02*
X212332580Y-72210074D01*
X210582580Y-69638646D02*
X209582580Y-70305312D01*
X210582580Y-70305312D02*
X209582580Y-69638646D01*
X209582580Y-70686265D02*
X210582580Y-70686265D01*
X210582580Y-70686265D02*
X210582580Y-70924360D01*
X210582580Y-70924360D02*
X210534961Y-71067217D01*
X210534961Y-71067217D02*
X210439723Y-71162455D01*
X210439723Y-71162455D02*
X210344485Y-71210074D01*
X210344485Y-71210074D02*
X210154009Y-71257693D01*
X210154009Y-71257693D02*
X210011152Y-71257693D01*
X210011152Y-71257693D02*
X209820676Y-71210074D01*
X209820676Y-71210074D02*
X209725438Y-71162455D01*
X209725438Y-71162455D02*
X209630200Y-71067217D01*
X209630200Y-71067217D02*
X209582580Y-70924360D01*
X209582580Y-70924360D02*
X209582580Y-70686265D01*
X209868295Y-71638646D02*
X209868295Y-72114836D01*
X209582580Y-71543408D02*
X210582580Y-71876741D01*
X210582580Y-71876741D02*
X209582580Y-72210074D01*
X214880200Y-69686265D02*
X214832580Y-69829122D01*
X214832580Y-69829122D02*
X214832580Y-70067217D01*
X214832580Y-70067217D02*
X214880200Y-70162455D01*
X214880200Y-70162455D02*
X214927819Y-70210074D01*
X214927819Y-70210074D02*
X215023057Y-70257693D01*
X215023057Y-70257693D02*
X215118295Y-70257693D01*
X215118295Y-70257693D02*
X215213533Y-70210074D01*
X215213533Y-70210074D02*
X215261152Y-70162455D01*
X215261152Y-70162455D02*
X215308771Y-70067217D01*
X215308771Y-70067217D02*
X215356390Y-69876741D01*
X215356390Y-69876741D02*
X215404009Y-69781503D01*
X215404009Y-69781503D02*
X215451628Y-69733884D01*
X215451628Y-69733884D02*
X215546866Y-69686265D01*
X215546866Y-69686265D02*
X215642104Y-69686265D01*
X215642104Y-69686265D02*
X215737342Y-69733884D01*
X215737342Y-69733884D02*
X215784961Y-69781503D01*
X215784961Y-69781503D02*
X215832580Y-69876741D01*
X215832580Y-69876741D02*
X215832580Y-70114836D01*
X215832580Y-70114836D02*
X215784961Y-70257693D01*
X214927819Y-71257693D02*
X214880200Y-71210074D01*
X214880200Y-71210074D02*
X214832580Y-71067217D01*
X214832580Y-71067217D02*
X214832580Y-70971979D01*
X214832580Y-70971979D02*
X214880200Y-70829122D01*
X214880200Y-70829122D02*
X214975438Y-70733884D01*
X214975438Y-70733884D02*
X215070676Y-70686265D01*
X215070676Y-70686265D02*
X215261152Y-70638646D01*
X215261152Y-70638646D02*
X215404009Y-70638646D01*
X215404009Y-70638646D02*
X215594485Y-70686265D01*
X215594485Y-70686265D02*
X215689723Y-70733884D01*
X215689723Y-70733884D02*
X215784961Y-70829122D01*
X215784961Y-70829122D02*
X215832580Y-70971979D01*
X215832580Y-70971979D02*
X215832580Y-71067217D01*
X215832580Y-71067217D02*
X215784961Y-71210074D01*
X215784961Y-71210074D02*
X215737342Y-71257693D01*
X214832580Y-72162455D02*
X214832580Y-71686265D01*
X214832580Y-71686265D02*
X215832580Y-71686265D01*
X204868295Y-69686265D02*
X204868295Y-70162455D01*
X204582580Y-69591027D02*
X205582580Y-69924360D01*
X205582580Y-69924360D02*
X204582580Y-70257693D01*
X204582580Y-70591027D02*
X205582580Y-70591027D01*
X205582580Y-70591027D02*
X205582580Y-70829122D01*
X205582580Y-70829122D02*
X205534961Y-70971979D01*
X205534961Y-70971979D02*
X205439723Y-71067217D01*
X205439723Y-71067217D02*
X205344485Y-71114836D01*
X205344485Y-71114836D02*
X205154009Y-71162455D01*
X205154009Y-71162455D02*
X205011152Y-71162455D01*
X205011152Y-71162455D02*
X204820676Y-71114836D01*
X204820676Y-71114836D02*
X204725438Y-71067217D01*
X204725438Y-71067217D02*
X204630200Y-70971979D01*
X204630200Y-70971979D02*
X204582580Y-70829122D01*
X204582580Y-70829122D02*
X204582580Y-70591027D01*
X205582580Y-71781503D02*
X205582580Y-71876741D01*
X205582580Y-71876741D02*
X205534961Y-71971979D01*
X205534961Y-71971979D02*
X205487342Y-72019598D01*
X205487342Y-72019598D02*
X205392104Y-72067217D01*
X205392104Y-72067217D02*
X205201628Y-72114836D01*
X205201628Y-72114836D02*
X204963533Y-72114836D01*
X204963533Y-72114836D02*
X204773057Y-72067217D01*
X204773057Y-72067217D02*
X204677819Y-72019598D01*
X204677819Y-72019598D02*
X204630200Y-71971979D01*
X204630200Y-71971979D02*
X204582580Y-71876741D01*
X204582580Y-71876741D02*
X204582580Y-71781503D01*
X204582580Y-71781503D02*
X204630200Y-71686265D01*
X204630200Y-71686265D02*
X204677819Y-71638646D01*
X204677819Y-71638646D02*
X204773057Y-71591027D01*
X204773057Y-71591027D02*
X204963533Y-71543408D01*
X204963533Y-71543408D02*
X205201628Y-71543408D01*
X205201628Y-71543408D02*
X205392104Y-71591027D01*
X205392104Y-71591027D02*
X205487342Y-71638646D01*
X205487342Y-71638646D02*
X205534961Y-71686265D01*
X205534961Y-71686265D02*
X205582580Y-71781503D01*
D10*
X207978809Y-85385057D02*
X207883571Y-85337438D01*
X207883571Y-85337438D02*
X207788333Y-85242200D01*
X207788333Y-85242200D02*
X207645476Y-85099342D01*
X207645476Y-85099342D02*
X207550238Y-85051723D01*
X207550238Y-85051723D02*
X207455000Y-85051723D01*
X207502619Y-85289819D02*
X207407381Y-85242200D01*
X207407381Y-85242200D02*
X207312143Y-85146961D01*
X207312143Y-85146961D02*
X207264524Y-84956485D01*
X207264524Y-84956485D02*
X207264524Y-84623152D01*
X207264524Y-84623152D02*
X207312143Y-84432676D01*
X207312143Y-84432676D02*
X207407381Y-84337438D01*
X207407381Y-84337438D02*
X207502619Y-84289819D01*
X207502619Y-84289819D02*
X207693095Y-84289819D01*
X207693095Y-84289819D02*
X207788333Y-84337438D01*
X207788333Y-84337438D02*
X207883571Y-84432676D01*
X207883571Y-84432676D02*
X207931190Y-84623152D01*
X207931190Y-84623152D02*
X207931190Y-84956485D01*
X207931190Y-84956485D02*
X207883571Y-85146961D01*
X207883571Y-85146961D02*
X207788333Y-85242200D01*
X207788333Y-85242200D02*
X207693095Y-85289819D01*
X207693095Y-85289819D02*
X207502619Y-85289819D01*
X208359762Y-85289819D02*
X208359762Y-84289819D01*
X208359762Y-84289819D02*
X208693095Y-85004104D01*
X208693095Y-85004104D02*
X209026428Y-84289819D01*
X209026428Y-84289819D02*
X209026428Y-85289819D01*
X210074047Y-85194580D02*
X210026428Y-85242200D01*
X210026428Y-85242200D02*
X209883571Y-85289819D01*
X209883571Y-85289819D02*
X209788333Y-85289819D01*
X209788333Y-85289819D02*
X209645476Y-85242200D01*
X209645476Y-85242200D02*
X209550238Y-85146961D01*
X209550238Y-85146961D02*
X209502619Y-85051723D01*
X209502619Y-85051723D02*
X209455000Y-84861247D01*
X209455000Y-84861247D02*
X209455000Y-84718390D01*
X209455000Y-84718390D02*
X209502619Y-84527914D01*
X209502619Y-84527914D02*
X209550238Y-84432676D01*
X209550238Y-84432676D02*
X209645476Y-84337438D01*
X209645476Y-84337438D02*
X209788333Y-84289819D01*
X209788333Y-84289819D02*
X209883571Y-84289819D01*
X209883571Y-84289819D02*
X210026428Y-84337438D01*
X210026428Y-84337438D02*
X210074047Y-84385057D01*
X210978809Y-84289819D02*
X210502619Y-84289819D01*
X210502619Y-84289819D02*
X210455000Y-84766009D01*
X210455000Y-84766009D02*
X210502619Y-84718390D01*
X210502619Y-84718390D02*
X210597857Y-84670771D01*
X210597857Y-84670771D02*
X210835952Y-84670771D01*
X210835952Y-84670771D02*
X210931190Y-84718390D01*
X210931190Y-84718390D02*
X210978809Y-84766009D01*
X210978809Y-84766009D02*
X211026428Y-84861247D01*
X211026428Y-84861247D02*
X211026428Y-85099342D01*
X211026428Y-85099342D02*
X210978809Y-85194580D01*
X210978809Y-85194580D02*
X210931190Y-85242200D01*
X210931190Y-85242200D02*
X210835952Y-85289819D01*
X210835952Y-85289819D02*
X210597857Y-85289819D01*
X210597857Y-85289819D02*
X210502619Y-85242200D01*
X210502619Y-85242200D02*
X210455000Y-85194580D01*
X211597857Y-84718390D02*
X211502619Y-84670771D01*
X211502619Y-84670771D02*
X211455000Y-84623152D01*
X211455000Y-84623152D02*
X211407381Y-84527914D01*
X211407381Y-84527914D02*
X211407381Y-84480295D01*
X211407381Y-84480295D02*
X211455000Y-84385057D01*
X211455000Y-84385057D02*
X211502619Y-84337438D01*
X211502619Y-84337438D02*
X211597857Y-84289819D01*
X211597857Y-84289819D02*
X211788333Y-84289819D01*
X211788333Y-84289819D02*
X211883571Y-84337438D01*
X211883571Y-84337438D02*
X211931190Y-84385057D01*
X211931190Y-84385057D02*
X211978809Y-84480295D01*
X211978809Y-84480295D02*
X211978809Y-84527914D01*
X211978809Y-84527914D02*
X211931190Y-84623152D01*
X211931190Y-84623152D02*
X211883571Y-84670771D01*
X211883571Y-84670771D02*
X211788333Y-84718390D01*
X211788333Y-84718390D02*
X211597857Y-84718390D01*
X211597857Y-84718390D02*
X211502619Y-84766009D01*
X211502619Y-84766009D02*
X211455000Y-84813628D01*
X211455000Y-84813628D02*
X211407381Y-84908866D01*
X211407381Y-84908866D02*
X211407381Y-85099342D01*
X211407381Y-85099342D02*
X211455000Y-85194580D01*
X211455000Y-85194580D02*
X211502619Y-85242200D01*
X211502619Y-85242200D02*
X211597857Y-85289819D01*
X211597857Y-85289819D02*
X211788333Y-85289819D01*
X211788333Y-85289819D02*
X211883571Y-85242200D01*
X211883571Y-85242200D02*
X211931190Y-85194580D01*
X211931190Y-85194580D02*
X211978809Y-85099342D01*
X211978809Y-85099342D02*
X211978809Y-84908866D01*
X211978809Y-84908866D02*
X211931190Y-84813628D01*
X211931190Y-84813628D02*
X211883571Y-84766009D01*
X211883571Y-84766009D02*
X211788333Y-84718390D01*
X212550238Y-84718390D02*
X212455000Y-84670771D01*
X212455000Y-84670771D02*
X212407381Y-84623152D01*
X212407381Y-84623152D02*
X212359762Y-84527914D01*
X212359762Y-84527914D02*
X212359762Y-84480295D01*
X212359762Y-84480295D02*
X212407381Y-84385057D01*
X212407381Y-84385057D02*
X212455000Y-84337438D01*
X212455000Y-84337438D02*
X212550238Y-84289819D01*
X212550238Y-84289819D02*
X212740714Y-84289819D01*
X212740714Y-84289819D02*
X212835952Y-84337438D01*
X212835952Y-84337438D02*
X212883571Y-84385057D01*
X212883571Y-84385057D02*
X212931190Y-84480295D01*
X212931190Y-84480295D02*
X212931190Y-84527914D01*
X212931190Y-84527914D02*
X212883571Y-84623152D01*
X212883571Y-84623152D02*
X212835952Y-84670771D01*
X212835952Y-84670771D02*
X212740714Y-84718390D01*
X212740714Y-84718390D02*
X212550238Y-84718390D01*
X212550238Y-84718390D02*
X212455000Y-84766009D01*
X212455000Y-84766009D02*
X212407381Y-84813628D01*
X212407381Y-84813628D02*
X212359762Y-84908866D01*
X212359762Y-84908866D02*
X212359762Y-85099342D01*
X212359762Y-85099342D02*
X212407381Y-85194580D01*
X212407381Y-85194580D02*
X212455000Y-85242200D01*
X212455000Y-85242200D02*
X212550238Y-85289819D01*
X212550238Y-85289819D02*
X212740714Y-85289819D01*
X212740714Y-85289819D02*
X212835952Y-85242200D01*
X212835952Y-85242200D02*
X212883571Y-85194580D01*
X212883571Y-85194580D02*
X212931190Y-85099342D01*
X212931190Y-85099342D02*
X212931190Y-84908866D01*
X212931190Y-84908866D02*
X212883571Y-84813628D01*
X212883571Y-84813628D02*
X212835952Y-84766009D01*
X212835952Y-84766009D02*
X212740714Y-84718390D01*
X213264524Y-84289819D02*
X213883571Y-84289819D01*
X213883571Y-84289819D02*
X213550238Y-84670771D01*
X213550238Y-84670771D02*
X213693095Y-84670771D01*
X213693095Y-84670771D02*
X213788333Y-84718390D01*
X213788333Y-84718390D02*
X213835952Y-84766009D01*
X213835952Y-84766009D02*
X213883571Y-84861247D01*
X213883571Y-84861247D02*
X213883571Y-85099342D01*
X213883571Y-85099342D02*
X213835952Y-85194580D01*
X213835952Y-85194580D02*
X213788333Y-85242200D01*
X213788333Y-85242200D02*
X213693095Y-85289819D01*
X213693095Y-85289819D02*
X213407381Y-85289819D01*
X213407381Y-85289819D02*
X213312143Y-85242200D01*
X213312143Y-85242200D02*
X213264524Y-85194580D01*
X214788333Y-85289819D02*
X214312143Y-85289819D01*
X214312143Y-85289819D02*
X214312143Y-84289819D01*
X215645476Y-85289819D02*
X215074048Y-85289819D01*
X215359762Y-85289819D02*
X215359762Y-84289819D01*
X215359762Y-84289819D02*
X215264524Y-84432676D01*
X215264524Y-84432676D02*
X215169286Y-84527914D01*
X215169286Y-84527914D02*
X215074048Y-84575533D01*
D11*
X213282693Y-73505038D02*
X213187455Y-73457419D01*
X213187455Y-73457419D02*
X213044598Y-73457419D01*
X213044598Y-73457419D02*
X212901741Y-73505038D01*
X212901741Y-73505038D02*
X212806503Y-73600276D01*
X212806503Y-73600276D02*
X212758884Y-73695514D01*
X212758884Y-73695514D02*
X212711265Y-73885990D01*
X212711265Y-73885990D02*
X212711265Y-74028847D01*
X212711265Y-74028847D02*
X212758884Y-74219323D01*
X212758884Y-74219323D02*
X212806503Y-74314561D01*
X212806503Y-74314561D02*
X212901741Y-74409800D01*
X212901741Y-74409800D02*
X213044598Y-74457419D01*
X213044598Y-74457419D02*
X213139836Y-74457419D01*
X213139836Y-74457419D02*
X213282693Y-74409800D01*
X213282693Y-74409800D02*
X213330312Y-74362180D01*
X213330312Y-74362180D02*
X213330312Y-74028847D01*
X213330312Y-74028847D02*
X213139836Y-74028847D01*
X213758884Y-74457419D02*
X213758884Y-73457419D01*
X213758884Y-73457419D02*
X214330312Y-74457419D01*
X214330312Y-74457419D02*
X214330312Y-73457419D01*
X214806503Y-74457419D02*
X214806503Y-73457419D01*
X214806503Y-73457419D02*
X215044598Y-73457419D01*
X215044598Y-73457419D02*
X215187455Y-73505038D01*
X215187455Y-73505038D02*
X215282693Y-73600276D01*
X215282693Y-73600276D02*
X215330312Y-73695514D01*
X215330312Y-73695514D02*
X215377931Y-73885990D01*
X215377931Y-73885990D02*
X215377931Y-74028847D01*
X215377931Y-74028847D02*
X215330312Y-74219323D01*
X215330312Y-74219323D02*
X215282693Y-74314561D01*
X215282693Y-74314561D02*
X215187455Y-74409800D01*
X215187455Y-74409800D02*
X215044598Y-74457419D01*
X215044598Y-74457419D02*
X214806503Y-74457419D01*
X212866027Y-70957419D02*
X213199360Y-71957419D01*
X213199360Y-71957419D02*
X213532693Y-70957419D01*
X214437455Y-71862180D02*
X214389836Y-71909800D01*
X214389836Y-71909800D02*
X214246979Y-71957419D01*
X214246979Y-71957419D02*
X214151741Y-71957419D01*
X214151741Y-71957419D02*
X214008884Y-71909800D01*
X214008884Y-71909800D02*
X213913646Y-71814561D01*
X213913646Y-71814561D02*
X213866027Y-71719323D01*
X213866027Y-71719323D02*
X213818408Y-71528847D01*
X213818408Y-71528847D02*
X213818408Y-71385990D01*
X213818408Y-71385990D02*
X213866027Y-71195514D01*
X213866027Y-71195514D02*
X213913646Y-71100276D01*
X213913646Y-71100276D02*
X214008884Y-71005038D01*
X214008884Y-71005038D02*
X214151741Y-70957419D01*
X214151741Y-70957419D02*
X214246979Y-70957419D01*
X214246979Y-70957419D02*
X214389836Y-71005038D01*
X214389836Y-71005038D02*
X214437455Y-71052657D01*
X215437455Y-71862180D02*
X215389836Y-71909800D01*
X215389836Y-71909800D02*
X215246979Y-71957419D01*
X215246979Y-71957419D02*
X215151741Y-71957419D01*
X215151741Y-71957419D02*
X215008884Y-71909800D01*
X215008884Y-71909800D02*
X214913646Y-71814561D01*
X214913646Y-71814561D02*
X214866027Y-71719323D01*
X214866027Y-71719323D02*
X214818408Y-71528847D01*
X214818408Y-71528847D02*
X214818408Y-71385990D01*
X214818408Y-71385990D02*
X214866027Y-71195514D01*
X214866027Y-71195514D02*
X214913646Y-71100276D01*
X214913646Y-71100276D02*
X215008884Y-71005038D01*
X215008884Y-71005038D02*
X215151741Y-70957419D01*
X215151741Y-70957419D02*
X215246979Y-70957419D01*
X215246979Y-70957419D02*
X215389836Y-71005038D01*
X215389836Y-71005038D02*
X215437455Y-71052657D01*
X212961265Y-79409800D02*
X213104122Y-79457419D01*
X213104122Y-79457419D02*
X213342217Y-79457419D01*
X213342217Y-79457419D02*
X213437455Y-79409800D01*
X213437455Y-79409800D02*
X213485074Y-79362180D01*
X213485074Y-79362180D02*
X213532693Y-79266942D01*
X213532693Y-79266942D02*
X213532693Y-79171704D01*
X213532693Y-79171704D02*
X213485074Y-79076466D01*
X213485074Y-79076466D02*
X213437455Y-79028847D01*
X213437455Y-79028847D02*
X213342217Y-78981228D01*
X213342217Y-78981228D02*
X213151741Y-78933609D01*
X213151741Y-78933609D02*
X213056503Y-78885990D01*
X213056503Y-78885990D02*
X213008884Y-78838371D01*
X213008884Y-78838371D02*
X212961265Y-78743133D01*
X212961265Y-78743133D02*
X212961265Y-78647895D01*
X212961265Y-78647895D02*
X213008884Y-78552657D01*
X213008884Y-78552657D02*
X213056503Y-78505038D01*
X213056503Y-78505038D02*
X213151741Y-78457419D01*
X213151741Y-78457419D02*
X213389836Y-78457419D01*
X213389836Y-78457419D02*
X213532693Y-78505038D01*
X213961265Y-79457419D02*
X213961265Y-78457419D01*
X213961265Y-78457419D02*
X214199360Y-78457419D01*
X214199360Y-78457419D02*
X214342217Y-78505038D01*
X214342217Y-78505038D02*
X214437455Y-78600276D01*
X214437455Y-78600276D02*
X214485074Y-78695514D01*
X214485074Y-78695514D02*
X214532693Y-78885990D01*
X214532693Y-78885990D02*
X214532693Y-79028847D01*
X214532693Y-79028847D02*
X214485074Y-79219323D01*
X214485074Y-79219323D02*
X214437455Y-79314561D01*
X214437455Y-79314561D02*
X214342217Y-79409800D01*
X214342217Y-79409800D02*
X214199360Y-79457419D01*
X214199360Y-79457419D02*
X213961265Y-79457419D01*
X214913646Y-79171704D02*
X215389836Y-79171704D01*
X214818408Y-79457419D02*
X215151741Y-78457419D01*
X215151741Y-78457419D02*
X215485074Y-79457419D01*
X212008884Y-81957419D02*
X212008884Y-80957419D01*
X212008884Y-80957419D02*
X212246979Y-80957419D01*
X212246979Y-80957419D02*
X212389836Y-81005038D01*
X212389836Y-81005038D02*
X212485074Y-81100276D01*
X212485074Y-81100276D02*
X212532693Y-81195514D01*
X212532693Y-81195514D02*
X212580312Y-81385990D01*
X212580312Y-81385990D02*
X212580312Y-81528847D01*
X212580312Y-81528847D02*
X212532693Y-81719323D01*
X212532693Y-81719323D02*
X212485074Y-81814561D01*
X212485074Y-81814561D02*
X212389836Y-81909800D01*
X212389836Y-81909800D02*
X212246979Y-81957419D01*
X212246979Y-81957419D02*
X212008884Y-81957419D01*
X213580312Y-81957419D02*
X213246979Y-81481228D01*
X213008884Y-81957419D02*
X213008884Y-80957419D01*
X213008884Y-80957419D02*
X213389836Y-80957419D01*
X213389836Y-80957419D02*
X213485074Y-81005038D01*
X213485074Y-81005038D02*
X213532693Y-81052657D01*
X213532693Y-81052657D02*
X213580312Y-81147895D01*
X213580312Y-81147895D02*
X213580312Y-81290752D01*
X213580312Y-81290752D02*
X213532693Y-81385990D01*
X213532693Y-81385990D02*
X213485074Y-81433609D01*
X213485074Y-81433609D02*
X213389836Y-81481228D01*
X213389836Y-81481228D02*
X213008884Y-81481228D01*
X214008884Y-81957419D02*
X214008884Y-80957419D01*
X214008884Y-80957419D02*
X214246979Y-80957419D01*
X214246979Y-80957419D02*
X214389836Y-81005038D01*
X214389836Y-81005038D02*
X214485074Y-81100276D01*
X214485074Y-81100276D02*
X214532693Y-81195514D01*
X214532693Y-81195514D02*
X214580312Y-81385990D01*
X214580312Y-81385990D02*
X214580312Y-81528847D01*
X214580312Y-81528847D02*
X214532693Y-81719323D01*
X214532693Y-81719323D02*
X214485074Y-81814561D01*
X214485074Y-81814561D02*
X214389836Y-81909800D01*
X214389836Y-81909800D02*
X214246979Y-81957419D01*
X214246979Y-81957419D02*
X214008884Y-81957419D01*
X215199360Y-81481228D02*
X215199360Y-81957419D01*
X214866027Y-80957419D02*
X215199360Y-81481228D01*
X215199360Y-81481228D02*
X215532693Y-80957419D01*
X212961265Y-76909800D02*
X213104122Y-76957419D01*
X213104122Y-76957419D02*
X213342217Y-76957419D01*
X213342217Y-76957419D02*
X213437455Y-76909800D01*
X213437455Y-76909800D02*
X213485074Y-76862180D01*
X213485074Y-76862180D02*
X213532693Y-76766942D01*
X213532693Y-76766942D02*
X213532693Y-76671704D01*
X213532693Y-76671704D02*
X213485074Y-76576466D01*
X213485074Y-76576466D02*
X213437455Y-76528847D01*
X213437455Y-76528847D02*
X213342217Y-76481228D01*
X213342217Y-76481228D02*
X213151741Y-76433609D01*
X213151741Y-76433609D02*
X213056503Y-76385990D01*
X213056503Y-76385990D02*
X213008884Y-76338371D01*
X213008884Y-76338371D02*
X212961265Y-76243133D01*
X212961265Y-76243133D02*
X212961265Y-76147895D01*
X212961265Y-76147895D02*
X213008884Y-76052657D01*
X213008884Y-76052657D02*
X213056503Y-76005038D01*
X213056503Y-76005038D02*
X213151741Y-75957419D01*
X213151741Y-75957419D02*
X213389836Y-75957419D01*
X213389836Y-75957419D02*
X213532693Y-76005038D01*
X214532693Y-76862180D02*
X214485074Y-76909800D01*
X214485074Y-76909800D02*
X214342217Y-76957419D01*
X214342217Y-76957419D02*
X214246979Y-76957419D01*
X214246979Y-76957419D02*
X214104122Y-76909800D01*
X214104122Y-76909800D02*
X214008884Y-76814561D01*
X214008884Y-76814561D02*
X213961265Y-76719323D01*
X213961265Y-76719323D02*
X213913646Y-76528847D01*
X213913646Y-76528847D02*
X213913646Y-76385990D01*
X213913646Y-76385990D02*
X213961265Y-76195514D01*
X213961265Y-76195514D02*
X214008884Y-76100276D01*
X214008884Y-76100276D02*
X214104122Y-76005038D01*
X214104122Y-76005038D02*
X214246979Y-75957419D01*
X214246979Y-75957419D02*
X214342217Y-75957419D01*
X214342217Y-75957419D02*
X214485074Y-76005038D01*
X214485074Y-76005038D02*
X214532693Y-76052657D01*
X215437455Y-76957419D02*
X214961265Y-76957419D01*
X214961265Y-76957419D02*
X214961265Y-75957419D01*
D12*
X210406959Y-52596142D02*
X211435054Y-52596142D01*
X211435054Y-52596142D02*
X211556006Y-52523571D01*
X211556006Y-52523571D02*
X211616483Y-52451000D01*
X211616483Y-52451000D02*
X211676959Y-52305857D01*
X211676959Y-52305857D02*
X211676959Y-52015571D01*
X211676959Y-52015571D02*
X211616483Y-51870428D01*
X211616483Y-51870428D02*
X211556006Y-51797857D01*
X211556006Y-51797857D02*
X211435054Y-51725285D01*
X211435054Y-51725285D02*
X210406959Y-51725285D01*
X211676959Y-50201286D02*
X211676959Y-51072143D01*
X211676959Y-50636714D02*
X210406959Y-50636714D01*
X210406959Y-50636714D02*
X210588387Y-50781857D01*
X210588387Y-50781857D02*
X210709340Y-50927000D01*
X210709340Y-50927000D02*
X210769816Y-51072143D01*
D10*
X215288095Y-53039819D02*
X215288095Y-53849342D01*
X215288095Y-53849342D02*
X215335714Y-53944580D01*
X215335714Y-53944580D02*
X215383333Y-53992200D01*
X215383333Y-53992200D02*
X215478571Y-54039819D01*
X215478571Y-54039819D02*
X215669047Y-54039819D01*
X215669047Y-54039819D02*
X215764285Y-53992200D01*
X215764285Y-53992200D02*
X215811904Y-53944580D01*
X215811904Y-53944580D02*
X215859523Y-53849342D01*
X215859523Y-53849342D02*
X215859523Y-53039819D01*
X216240476Y-53039819D02*
X216859523Y-53039819D01*
X216859523Y-53039819D02*
X216526190Y-53420771D01*
X216526190Y-53420771D02*
X216669047Y-53420771D01*
X216669047Y-53420771D02*
X216764285Y-53468390D01*
X216764285Y-53468390D02*
X216811904Y-53516009D01*
X216811904Y-53516009D02*
X216859523Y-53611247D01*
X216859523Y-53611247D02*
X216859523Y-53849342D01*
X216859523Y-53849342D02*
X216811904Y-53944580D01*
X216811904Y-53944580D02*
X216764285Y-53992200D01*
X216764285Y-53992200D02*
X216669047Y-54039819D01*
X216669047Y-54039819D02*
X216383333Y-54039819D01*
X216383333Y-54039819D02*
X216288095Y-53992200D01*
X216288095Y-53992200D02*
X216240476Y-53944580D01*
D13*
X209813096Y-61484904D02*
X209751191Y-61453952D01*
X209751191Y-61453952D02*
X209658334Y-61453952D01*
X209658334Y-61453952D02*
X209565477Y-61484904D01*
X209565477Y-61484904D02*
X209503572Y-61546809D01*
X209503572Y-61546809D02*
X209472619Y-61608714D01*
X209472619Y-61608714D02*
X209441667Y-61732523D01*
X209441667Y-61732523D02*
X209441667Y-61825380D01*
X209441667Y-61825380D02*
X209472619Y-61949190D01*
X209472619Y-61949190D02*
X209503572Y-62011095D01*
X209503572Y-62011095D02*
X209565477Y-62073000D01*
X209565477Y-62073000D02*
X209658334Y-62103952D01*
X209658334Y-62103952D02*
X209720238Y-62103952D01*
X209720238Y-62103952D02*
X209813096Y-62073000D01*
X209813096Y-62073000D02*
X209844048Y-62042047D01*
X209844048Y-62042047D02*
X209844048Y-61825380D01*
X209844048Y-61825380D02*
X209720238Y-61825380D01*
X210122619Y-62103952D02*
X210122619Y-61453952D01*
X210122619Y-61453952D02*
X210494048Y-62103952D01*
X210494048Y-62103952D02*
X210494048Y-61453952D01*
X210803571Y-62103952D02*
X210803571Y-61453952D01*
X210803571Y-61453952D02*
X210958333Y-61453952D01*
X210958333Y-61453952D02*
X211051190Y-61484904D01*
X211051190Y-61484904D02*
X211113095Y-61546809D01*
X211113095Y-61546809D02*
X211144048Y-61608714D01*
X211144048Y-61608714D02*
X211175000Y-61732523D01*
X211175000Y-61732523D02*
X211175000Y-61825380D01*
X211175000Y-61825380D02*
X211144048Y-61949190D01*
X211144048Y-61949190D02*
X211113095Y-62011095D01*
X211113095Y-62011095D02*
X211051190Y-62073000D01*
X211051190Y-62073000D02*
X210958333Y-62103952D01*
X210958333Y-62103952D02*
X210803571Y-62103952D01*
X212072619Y-61453952D02*
X212196428Y-61453952D01*
X212196428Y-61453952D02*
X212258333Y-61484904D01*
X212258333Y-61484904D02*
X212320238Y-61546809D01*
X212320238Y-61546809D02*
X212351190Y-61670619D01*
X212351190Y-61670619D02*
X212351190Y-61887285D01*
X212351190Y-61887285D02*
X212320238Y-62011095D01*
X212320238Y-62011095D02*
X212258333Y-62073000D01*
X212258333Y-62073000D02*
X212196428Y-62103952D01*
X212196428Y-62103952D02*
X212072619Y-62103952D01*
X212072619Y-62103952D02*
X212010714Y-62073000D01*
X212010714Y-62073000D02*
X211948809Y-62011095D01*
X211948809Y-62011095D02*
X211917857Y-61887285D01*
X211917857Y-61887285D02*
X211917857Y-61670619D01*
X211917857Y-61670619D02*
X211948809Y-61546809D01*
X211948809Y-61546809D02*
X212010714Y-61484904D01*
X212010714Y-61484904D02*
X212072619Y-61453952D01*
X212629761Y-61453952D02*
X212629761Y-61980142D01*
X212629761Y-61980142D02*
X212660714Y-62042047D01*
X212660714Y-62042047D02*
X212691666Y-62073000D01*
X212691666Y-62073000D02*
X212753571Y-62103952D01*
X212753571Y-62103952D02*
X212877380Y-62103952D01*
X212877380Y-62103952D02*
X212939285Y-62073000D01*
X212939285Y-62073000D02*
X212970238Y-62042047D01*
X212970238Y-62042047D02*
X213001190Y-61980142D01*
X213001190Y-61980142D02*
X213001190Y-61453952D01*
X213217856Y-61453952D02*
X213589285Y-61453952D01*
X213403571Y-62103952D02*
X213403571Y-61453952D01*
X214796427Y-62103952D02*
X214796427Y-61453952D01*
X215105951Y-62103952D02*
X215105951Y-61453952D01*
X215105951Y-61453952D02*
X215477380Y-62103952D01*
X215477380Y-62103952D02*
X215477380Y-61453952D01*
D10*
X200326666Y-53004819D02*
X200326666Y-53719104D01*
X200326666Y-53719104D02*
X200279047Y-53861961D01*
X200279047Y-53861961D02*
X200183809Y-53957200D01*
X200183809Y-53957200D02*
X200040952Y-54004819D01*
X200040952Y-54004819D02*
X199945714Y-54004819D01*
X201326666Y-54004819D02*
X200755238Y-54004819D01*
X201040952Y-54004819D02*
X201040952Y-53004819D01*
X201040952Y-53004819D02*
X200945714Y-53147676D01*
X200945714Y-53147676D02*
X200850476Y-53242914D01*
X200850476Y-53242914D02*
X200755238Y-53290533D01*
%TO.C,SW1*%
D11*
X198760000Y-38690000D02*
X202760000Y-38690000D01*
X202760000Y-29690000D01*
X198760000Y-29690000D01*
X198760000Y-38690000D01*
%TO.C,MPU1*%
X221705000Y-66930000D02*
X201205000Y-66930000D01*
X201205000Y-82930000D01*
X221705000Y-82930000D01*
X221705000Y-66930000D01*
%TO.C,QMC5883L1*%
X203705000Y-69835000D02*
X218705000Y-69835000D01*
X218705000Y-83585000D01*
X203705000Y-83585000D01*
X203705000Y-69835000D01*
D14*
%TO.C,U1*%
X203835000Y-36195000D02*
X203835000Y-66675000D01*
X203835000Y-66675000D02*
X221615000Y-66675000D01*
X206375000Y-36195000D02*
X206375000Y-38735000D01*
X206375000Y-38735000D02*
X203835000Y-38735000D01*
X221615000Y-36195000D02*
X203835000Y-36195000D01*
X221615000Y-66675000D02*
X221615000Y-36195000D01*
D11*
X216695000Y-27985000D02*
X208695000Y-27985000D01*
X208695000Y-29735000D01*
X216695000Y-29735000D01*
X216695000Y-27985000D01*
X221615000Y-29735000D02*
X203775000Y-29735000D01*
X203775000Y-36195000D01*
X221615000Y-36195000D01*
X221615000Y-29735000D01*
D15*
%TO.C,U3*%
X206060000Y-36425000D02*
X219390000Y-36425000D01*
X206060000Y-52475000D02*
X206060000Y-36425000D01*
X219390000Y-36425000D02*
X219390000Y-52475000D01*
X219390000Y-52475000D02*
X206060000Y-52475000D01*
%TO.C,U2*%
D11*
X208225000Y-53090000D02*
X217225000Y-53090000D01*
X217225000Y-66090000D01*
X208225000Y-66090000D01*
X208225000Y-53090000D01*
D16*
%TO.C,J1*%
X199330000Y-54550000D02*
X200660000Y-54550000D01*
X199330000Y-55880000D02*
X199330000Y-54550000D01*
X199330000Y-57150000D02*
X199330000Y-64830000D01*
X199330000Y-57150000D02*
X201990000Y-57150000D01*
X199330000Y-64830000D02*
X201990000Y-64830000D01*
X201990000Y-57150000D02*
X201990000Y-64830000D01*
%TD*%
D17*
%TO.C,U1*%
X205105000Y-37465000D03*
D18*
X205105000Y-40005000D03*
X205105000Y-42545000D03*
X205105000Y-45085000D03*
X205105000Y-47625000D03*
X205105000Y-50165000D03*
X205105000Y-52705000D03*
X205105000Y-55245000D03*
X205105000Y-57785000D03*
X205105000Y-60325000D03*
X205105000Y-62865000D03*
X205105000Y-65405000D03*
X220345000Y-65405000D03*
X220345000Y-62865000D03*
X220345000Y-60325000D03*
X220345000Y-57785000D03*
X220345000Y-55245000D03*
X220345000Y-52705000D03*
X220345000Y-50165000D03*
X220345000Y-47625000D03*
X220345000Y-45085000D03*
X220345000Y-42545000D03*
X220345000Y-40005000D03*
X220345000Y-37465000D03*
%TD*%
M02*
