%TF.GenerationSoftware,KiCad,Pcbnew,8.0.6*%
%TF.CreationDate,2025-05-20T21:52:46-05:00*%
%TF.ProjectId,HatRatV2,48617452-6174-4563-922e-6b696361645f,rev?*%
%TF.SameCoordinates,Original*%
%TF.FileFunction,Copper,L2,Bot*%
%TF.FilePolarity,Positive*%
%FSLAX46Y46*%
G04 Gerber Fmt 4.6, Leading zero omitted, Abs format (unit mm)*
G04 Created by KiCad (PCBNEW 8.0.6) date 2025-05-20 21:52:46*
%MOMM*%
%LPD*%
G01*
G04 APERTURE LIST*
%TA.AperFunction,ComponentPad*%
%ADD10O,2.000000X1.200000*%
%TD*%
%TA.AperFunction,ComponentPad*%
%ADD11O,1.200000X2.000000*%
%TD*%
%TA.AperFunction,ComponentPad*%
%ADD12R,1.752600X1.752600*%
%TD*%
%TA.AperFunction,ComponentPad*%
%ADD13C,1.752600*%
%TD*%
%TA.AperFunction,ComponentPad*%
%ADD14C,1.524000*%
%TD*%
%TA.AperFunction,ComponentPad*%
%ADD15R,1.524000X1.524000*%
%TD*%
%TA.AperFunction,ComponentPad*%
%ADD16R,1.500000X2.300000*%
%TD*%
%TA.AperFunction,ComponentPad*%
%ADD17O,1.500000X2.300000*%
%TD*%
%TA.AperFunction,ComponentPad*%
%ADD18R,1.700000X1.700000*%
%TD*%
%TA.AperFunction,ComponentPad*%
%ADD19O,1.700000X1.700000*%
%TD*%
%TA.AperFunction,Conductor*%
%ADD20C,0.200000*%
%TD*%
G04 APERTURE END LIST*
D10*
%TO.P,SW1,1,A*%
%TO.N,Net-(SW1-A)*%
X200660000Y-36830000D03*
%TO.P,SW1,2,B*%
%TO.N,Net-(MPU1-GND)*%
X200660000Y-34290000D03*
%TO.P,SW1,3,C*%
%TO.N,Net-(SW1-C)*%
X200660000Y-31750000D03*
%TD*%
D11*
%TO.P,MPU1,1,VCC*%
%TO.N,Net-(MPU1-VCC)*%
X220345000Y-68430000D03*
%TO.P,MPU1,2,GND*%
%TO.N,Net-(MPU1-GND)*%
X217805000Y-68430000D03*
%TO.P,MPU1,3,SCL*%
%TO.N,Net-(MPU1-SCL)*%
X215265000Y-68430000D03*
%TO.P,MPU1,4,SDA*%
%TO.N,Net-(MPU1-SDA)*%
X212725000Y-68430000D03*
%TO.P,MPU1,5,XDA*%
%TO.N,unconnected-(MPU1-XDA-Pad5)*%
X210185000Y-68430000D03*
%TO.P,MPU1,6,XCL*%
%TO.N,unconnected-(MPU1-XCL-Pad6)*%
X207645000Y-68430000D03*
%TO.P,MPU1,7,AD0*%
%TO.N,unconnected-(MPU1-AD0-Pad7)*%
X205105000Y-68430000D03*
%TO.P,MPU1,8,INT*%
%TO.N,unconnected-(MPU1-INT-Pad8)*%
X202565000Y-68430000D03*
%TD*%
D10*
%TO.P,QMC5883L1,1,VCC*%
%TO.N,Net-(MPU1-VCC)*%
X216955000Y-71425000D03*
%TO.P,QMC5883L1,2,GND*%
%TO.N,Net-(MPU1-GND)*%
X216955000Y-73965000D03*
%TO.P,QMC5883L1,3,SCL*%
%TO.N,Net-(MPU1-SCL)*%
X216955000Y-76505000D03*
%TO.P,QMC5883L1,4,SDA*%
%TO.N,Net-(MPU1-SDA)*%
X216955000Y-79045000D03*
%TO.P,QMC5883L1,5,DRDY*%
%TO.N,unconnected-(QMC5883L1-DRDY-Pad5)*%
X216955000Y-81585000D03*
%TD*%
D12*
%TO.P,U1,1,TX*%
%TO.N,Net-(SW1-A)*%
X205105000Y-37465000D03*
D13*
%TO.P,U1,2,RX*%
%TO.N,Net-(SW1-C)*%
X205105000Y-40005000D03*
%TO.P,U1,3,GND*%
%TO.N,Net-(U1-GND-Pad3)*%
X205105000Y-42545000D03*
%TO.P,U1,4,GND*%
%TO.N,Net-(J1-Pin_4)*%
X205105000Y-45085000D03*
%TO.P,U1,5,SDA*%
%TO.N,Net-(U1-SDA)*%
X205105000Y-47625000D03*
%TO.P,U1,6,SCL*%
%TO.N,Net-(U1-SCL)*%
X205105000Y-50165000D03*
%TO.P,U1,7,D4*%
%TO.N,Net-(J1-Pin_3)*%
X205105000Y-52705000D03*
%TO.P,U1,8,D5*%
%TO.N,unconnected-(U1-D5-Pad8)*%
X205105000Y-55245000D03*
%TO.P,U1,9,D6*%
%TO.N,unconnected-(U1-D6-Pad9)*%
X205105000Y-57785000D03*
%TO.P,U1,10,D7*%
%TO.N,unconnected-(U1-D7-Pad10)*%
X205105000Y-60325000D03*
%TO.P,U1,11,D8*%
%TO.N,unconnected-(U1-D8-Pad11)*%
X205105000Y-62865000D03*
%TO.P,U1,12,D9*%
%TO.N,Net-(J1-Pin_2)*%
X205105000Y-65405000D03*
%TO.P,U1,13,10*%
%TO.N,unconnected-(U1-10-Pad13)*%
X220345000Y-65405000D03*
%TO.P,U1,14,16*%
%TO.N,unconnected-(U1-16-Pad14)*%
X220345000Y-62865000D03*
%TO.P,U1,15,14*%
%TO.N,unconnected-(U1-14-Pad15)*%
X220345000Y-60325000D03*
%TO.P,U1,16,15*%
%TO.N,unconnected-(U1-15-Pad16)*%
X220345000Y-57785000D03*
%TO.P,U1,17,A0*%
%TO.N,unconnected-(U1-A0-Pad17)*%
X220345000Y-55245000D03*
%TO.P,U1,18,A1*%
%TO.N,unconnected-(U1-A1-Pad18)*%
X220345000Y-52705000D03*
%TO.P,U1,19,A2*%
%TO.N,unconnected-(U1-A2-Pad19)*%
X220345000Y-50165000D03*
%TO.P,U1,20,A3*%
%TO.N,unconnected-(U1-A3-Pad20)*%
X220345000Y-47625000D03*
%TO.P,U1,21,VCC*%
%TO.N,Net-(J1-Pin_1)*%
X220345000Y-45085000D03*
%TO.P,U1,22,RST*%
%TO.N,unconnected-(U1-RST-Pad22)*%
X220345000Y-42545000D03*
%TO.P,U1,23,GND*%
%TO.N,Net-(MPU1-GND)*%
X220345000Y-40005000D03*
%TO.P,U1,24,RAW*%
%TO.N,unconnected-(U1-RAW-Pad24)*%
X220345000Y-37465000D03*
%TD*%
D14*
%TO.P,U3,GND_1,GND*%
%TO.N,Net-(U1-GND-Pad3)*%
X207645000Y-43180000D03*
%TO.P,U3,GND_2,GND*%
X217805000Y-43180000D03*
%TO.P,U3,HV,HV*%
%TO.N,Net-(J1-Pin_1)*%
X207645000Y-45720000D03*
D15*
%TO.P,U3,HV1,HV1*%
%TO.N,Net-(U1-SDA)*%
X207645000Y-50800000D03*
D14*
%TO.P,U3,HV2,HV2*%
%TO.N,Net-(U1-SCL)*%
X207645000Y-48260000D03*
%TO.P,U3,HV3,HV3*%
%TO.N,unconnected-(U3-PadHV3)*%
X207645000Y-40640000D03*
%TO.P,U3,HV4,HV4*%
%TO.N,unconnected-(U3-PadHV4)*%
X207645000Y-38100000D03*
%TO.P,U3,LV,LV*%
%TO.N,Net-(MPU1-VCC)*%
X217805000Y-45720000D03*
D15*
%TO.P,U3,LV1,LV1*%
%TO.N,Net-(MPU1-SDA)*%
X217805000Y-50800000D03*
D14*
%TO.P,U3,LV2,LV2*%
%TO.N,Net-(MPU1-SCL)*%
X217805000Y-48260000D03*
%TO.P,U3,LV3,LV3*%
%TO.N,unconnected-(U3-PadLV3)*%
X217805000Y-40640000D03*
%TO.P,U3,LV4,LV4*%
%TO.N,unconnected-(U3-PadLV4)*%
X217805000Y-38100000D03*
%TD*%
D16*
%TO.P,U2,1,IN*%
%TO.N,Net-(J1-Pin_1)*%
X215275000Y-64590000D03*
D17*
%TO.P,U2,2,OUT*%
%TO.N,Net-(MPU1-VCC)*%
X212775000Y-64590000D03*
%TO.P,U2,3,GND*%
%TO.N,Net-(MPU1-GND)*%
X210275000Y-64540000D03*
%TD*%
D18*
%TO.P,J1,1,Pin_1*%
%TO.N,Net-(J1-Pin_1)*%
X200660000Y-55880000D03*
D19*
%TO.P,J1,2,Pin_2*%
%TO.N,Net-(J1-Pin_2)*%
X200660000Y-58420000D03*
%TO.P,J1,3,Pin_3*%
%TO.N,Net-(J1-Pin_3)*%
X200660000Y-60960000D03*
%TO.P,J1,4,Pin_4*%
%TO.N,Net-(J1-Pin_4)*%
X200660000Y-63500000D03*
%TD*%
D20*
%TO.N,Net-(U1-GND-Pad3)*%
X217805000Y-43180000D02*
X207645000Y-43180000D01*
X205740000Y-43180000D02*
X205105000Y-42545000D01*
X207645000Y-43180000D02*
X205740000Y-43180000D01*
%TO.N,Net-(U1-SCL)*%
X205740000Y-50165000D02*
X207645000Y-48260000D01*
X205105000Y-50165000D02*
X205740000Y-50165000D01*
%TO.N,Net-(J1-Pin_3)*%
X201811700Y-55998300D02*
X205105000Y-52705000D01*
X201811700Y-58944600D02*
X201811700Y-55998300D01*
X200948000Y-59808300D02*
X201811700Y-58944600D01*
X200660000Y-59808300D02*
X200948000Y-59808300D01*
X200660000Y-60960000D02*
X200660000Y-59808300D01*
%TO.N,Net-(J1-Pin_2)*%
X201930000Y-62230000D02*
X205105000Y-65405000D01*
X200271100Y-62230000D02*
X201930000Y-62230000D01*
X199481000Y-61439900D02*
X200271100Y-62230000D01*
X199481000Y-59599000D02*
X199481000Y-61439900D01*
X200660000Y-58420000D02*
X199481000Y-59599000D01*
%TO.N,Net-(J1-Pin_1)*%
X200660000Y-52907700D02*
X200660000Y-55880000D01*
X204672800Y-48894900D02*
X200660000Y-52907700D01*
X205517900Y-48894900D02*
X204672800Y-48894900D01*
X206389900Y-48022900D02*
X205517900Y-48894900D01*
X206389900Y-46975100D02*
X206389900Y-48022900D01*
X207645000Y-45720000D02*
X206389900Y-46975100D01*
X208756300Y-44608700D02*
X207645000Y-45720000D01*
X219868700Y-44608700D02*
X208756300Y-44608700D01*
X220345000Y-45085000D02*
X219868700Y-44608700D01*
%TO.N,Net-(SW1-A)*%
X202596700Y-37465000D02*
X201961700Y-36830000D01*
X205105000Y-37465000D02*
X202596700Y-37465000D01*
X200660000Y-36830000D02*
X201961700Y-36830000D01*
%TO.N,Net-(MPU1-SDA)*%
X210685000Y-67128300D02*
X212725000Y-67128300D01*
X207599700Y-64043000D02*
X210685000Y-67128300D01*
X204617100Y-64043000D02*
X207599700Y-64043000D01*
X203927000Y-63352900D02*
X204617100Y-64043000D01*
X203927000Y-62377100D02*
X203927000Y-63352900D01*
X204617100Y-61687000D02*
X203927000Y-62377100D01*
X205854300Y-61687000D02*
X204617100Y-61687000D01*
X216741300Y-50800000D02*
X205854300Y-61687000D01*
X217805000Y-50800000D02*
X216741300Y-50800000D01*
X212725000Y-68430000D02*
X212725000Y-67128300D01*
%TO.N,Net-(MPU1-VCC)*%
X219798200Y-66581500D02*
X220345000Y-67128300D01*
X214898000Y-66581500D02*
X219798200Y-66581500D01*
X213826700Y-65510200D02*
X214898000Y-66581500D01*
X213826700Y-64590000D02*
X213826700Y-65510200D01*
X212775000Y-64590000D02*
X213826700Y-64590000D01*
X220345000Y-68430000D02*
X220345000Y-67128300D01*
X219950000Y-69731700D02*
X220345000Y-69731700D01*
X218256700Y-71425000D02*
X219950000Y-69731700D01*
X216955000Y-71425000D02*
X218256700Y-71425000D01*
X220345000Y-68430000D02*
X220345000Y-69731700D01*
%TO.N,Net-(MPU1-GND)*%
X213389100Y-67128300D02*
X217805000Y-67128300D01*
X211326700Y-65065900D02*
X213389100Y-67128300D01*
X211326700Y-64540000D02*
X211326700Y-65065900D01*
X210275000Y-64540000D02*
X211326700Y-64540000D01*
X217805000Y-68430000D02*
X217805000Y-67128300D01*
X205471100Y-34290000D02*
X200660000Y-34290000D01*
X210551100Y-39370000D02*
X205471100Y-34290000D01*
X219710000Y-39370000D02*
X210551100Y-39370000D01*
X220345000Y-40005000D02*
X219710000Y-39370000D01*
%TD*%
M02*
