%TF.GenerationSoftware,KiCad,Pcbnew,8.0.6*%
%TF.CreationDate,2025-05-20T21:52:51-05:00*%
%TF.ProjectId,HatRatV2,48617452-6174-4563-922e-6b696361645f,rev?*%
%TF.SameCoordinates,Original*%
%TF.FileFunction,Drillmap*%
%TF.FilePolarity,Positive*%
%FSLAX45Y45*%
G04 Gerber Fmt 4.5, Leading zero omitted, Abs format (unit mm)*
G04 Created by KiCad (PCBNEW 8.0.6) date 2025-05-20 21:52:51*
%MOMM*%
%LPD*%
G01*
G04 APERTURE LIST*
%ADD10C,0.050000*%
%ADD11C,0.200000*%
%ADD12C,0.100000*%
%ADD13C,0.101600*%
%ADD14C,0.109220*%
G04 APERTURE END LIST*
D10*
X19812000Y-2921000D02*
X22225000Y-2921000D01*
X22225000Y-8445500D01*
X19812000Y-8445500D01*
X19812000Y-2921000D01*
D11*
D12*
X20026000Y-3135000D02*
X20106000Y-3215000D01*
X20106000Y-3135000D02*
X20026000Y-3215000D01*
X20026000Y-3389000D02*
X20106000Y-3469000D01*
X20106000Y-3389000D02*
X20026000Y-3469000D01*
X20026000Y-3643000D02*
X20106000Y-3723000D01*
X20106000Y-3643000D02*
X20026000Y-3723000D01*
X20216500Y-6803000D02*
X20296500Y-6883000D01*
X20296500Y-6803000D02*
X20216500Y-6883000D01*
X20470500Y-6803000D02*
X20550500Y-6883000D01*
X20550500Y-6803000D02*
X20470500Y-6883000D01*
X20724500Y-6803000D02*
X20804500Y-6883000D01*
X20804500Y-6803000D02*
X20724500Y-6883000D01*
X20978500Y-6803000D02*
X21058500Y-6883000D01*
X21058500Y-6803000D02*
X20978500Y-6883000D01*
X21232500Y-6803000D02*
X21312500Y-6883000D01*
X21312500Y-6803000D02*
X21232500Y-6883000D01*
X21486500Y-6803000D02*
X21566500Y-6883000D01*
X21566500Y-6803000D02*
X21486500Y-6883000D01*
X21655500Y-7102500D02*
X21735500Y-7182500D01*
X21735500Y-7102500D02*
X21655500Y-7182500D01*
X21655500Y-7356500D02*
X21735500Y-7436500D01*
X21735500Y-7356500D02*
X21655500Y-7436500D01*
X21655500Y-7610500D02*
X21735500Y-7690500D01*
X21735500Y-7610500D02*
X21655500Y-7690500D01*
X21655500Y-7864500D02*
X21735500Y-7944500D01*
X21735500Y-7864500D02*
X21655500Y-7944500D01*
X21655500Y-8118500D02*
X21735500Y-8198500D01*
X21735500Y-8118500D02*
X21655500Y-8198500D01*
X21740500Y-6803000D02*
X21820500Y-6883000D01*
X21820500Y-6803000D02*
X21740500Y-6883000D01*
X21994500Y-6803000D02*
X22074500Y-6883000D01*
X22074500Y-6803000D02*
X21994500Y-6883000D01*
X20116000Y-5588000D02*
G75*
G02*
X20016000Y-5588000I-50000J0D01*
G01*
X20016000Y-5588000D02*
G75*
G02*
X20116000Y-5588000I50000J0D01*
G01*
X20116000Y-5842000D02*
G75*
G02*
X20016000Y-5842000I-50000J0D01*
G01*
X20016000Y-5842000D02*
G75*
G02*
X20116000Y-5842000I50000J0D01*
G01*
X20116000Y-6096000D02*
G75*
G02*
X20016000Y-6096000I-50000J0D01*
G01*
X20016000Y-6096000D02*
G75*
G02*
X20116000Y-6096000I50000J0D01*
G01*
X20116000Y-6350000D02*
G75*
G02*
X20016000Y-6350000I-50000J0D01*
G01*
X20016000Y-6350000D02*
G75*
G02*
X20116000Y-6350000I50000J0D01*
G01*
X21077500Y-6454000D02*
G75*
G02*
X20977500Y-6454000I-50000J0D01*
G01*
X20977500Y-6454000D02*
G75*
G02*
X21077500Y-6454000I50000J0D01*
G01*
X21327500Y-6459000D02*
G75*
G02*
X21227500Y-6459000I-50000J0D01*
G01*
X21227500Y-6459000D02*
G75*
G02*
X21327500Y-6459000I50000J0D01*
G01*
X21577500Y-6459000D02*
G75*
G02*
X21477500Y-6459000I-50000J0D01*
G01*
X21477500Y-6459000D02*
G75*
G02*
X21577500Y-6459000I50000J0D01*
G01*
D13*
X20764500Y-3759200D02*
X20764500Y-3860800D01*
X20713700Y-3810000D02*
X20815300Y-3810000D01*
X20764500Y-4013200D02*
X20764500Y-4114800D01*
X20713700Y-4064000D02*
X20815300Y-4064000D01*
X20764500Y-4267200D02*
X20764500Y-4368800D01*
X20713700Y-4318000D02*
X20815300Y-4318000D01*
X20764500Y-4521200D02*
X20764500Y-4622800D01*
X20713700Y-4572000D02*
X20815300Y-4572000D01*
X20764500Y-4775200D02*
X20764500Y-4876800D01*
X20713700Y-4826000D02*
X20815300Y-4826000D01*
X20764500Y-5029200D02*
X20764500Y-5130800D01*
X20713700Y-5080000D02*
X20815300Y-5080000D01*
X21780500Y-3759200D02*
X21780500Y-3860800D01*
X21729700Y-3810000D02*
X21831300Y-3810000D01*
X21780500Y-4013200D02*
X21780500Y-4114800D01*
X21729700Y-4064000D02*
X21831300Y-4064000D01*
X21780500Y-4267200D02*
X21780500Y-4368800D01*
X21729700Y-4318000D02*
X21831300Y-4318000D01*
X21780500Y-4521200D02*
X21780500Y-4622800D01*
X21729700Y-4572000D02*
X21831300Y-4572000D01*
X21780500Y-4775200D02*
X21780500Y-4876800D01*
X21729700Y-4826000D02*
X21831300Y-4826000D01*
X21780500Y-5029200D02*
X21780500Y-5130800D01*
X21729700Y-5080000D02*
X21831300Y-5080000D01*
D14*
X20549116Y-3785115D02*
X20549116Y-3707884D01*
X20471885Y-3707884D01*
X20471885Y-3785115D01*
X20549116Y-3785115D01*
X20549116Y-4039115D02*
X20549116Y-3961884D01*
X20471885Y-3961884D01*
X20471885Y-4039115D01*
X20549116Y-4039115D01*
X20549116Y-4293116D02*
X20549116Y-4215885D01*
X20471885Y-4215885D01*
X20471885Y-4293116D01*
X20549116Y-4293116D01*
X20549116Y-4547116D02*
X20549116Y-4469885D01*
X20471885Y-4469885D01*
X20471885Y-4547116D01*
X20549116Y-4547116D01*
X20549116Y-4801116D02*
X20549116Y-4723885D01*
X20471885Y-4723885D01*
X20471885Y-4801116D01*
X20549116Y-4801116D01*
X20549116Y-5055116D02*
X20549116Y-4977885D01*
X20471885Y-4977885D01*
X20471885Y-5055116D01*
X20549116Y-5055116D01*
X20549116Y-5309116D02*
X20549116Y-5231885D01*
X20471885Y-5231885D01*
X20471885Y-5309116D01*
X20549116Y-5309116D01*
X20549116Y-5563116D02*
X20549116Y-5485885D01*
X20471885Y-5485885D01*
X20471885Y-5563116D01*
X20549116Y-5563116D01*
X20549116Y-5817115D02*
X20549116Y-5739884D01*
X20471885Y-5739884D01*
X20471885Y-5817115D01*
X20549116Y-5817115D01*
X20549116Y-6071115D02*
X20549116Y-5993884D01*
X20471885Y-5993884D01*
X20471885Y-6071115D01*
X20549116Y-6071115D01*
X20549116Y-6325115D02*
X20549116Y-6247884D01*
X20471885Y-6247884D01*
X20471885Y-6325115D01*
X20549116Y-6325115D01*
X20549116Y-6579115D02*
X20549116Y-6501884D01*
X20471885Y-6501884D01*
X20471885Y-6579115D01*
X20549116Y-6579115D01*
X22073116Y-3785115D02*
X22073116Y-3707884D01*
X21995885Y-3707884D01*
X21995885Y-3785115D01*
X22073116Y-3785115D01*
X22073116Y-4039115D02*
X22073116Y-3961884D01*
X21995885Y-3961884D01*
X21995885Y-4039115D01*
X22073116Y-4039115D01*
X22073116Y-4293116D02*
X22073116Y-4215885D01*
X21995885Y-4215885D01*
X21995885Y-4293116D01*
X22073116Y-4293116D01*
X22073116Y-4547116D02*
X22073116Y-4469885D01*
X21995885Y-4469885D01*
X21995885Y-4547116D01*
X22073116Y-4547116D01*
X22073116Y-4801116D02*
X22073116Y-4723885D01*
X21995885Y-4723885D01*
X21995885Y-4801116D01*
X22073116Y-4801116D01*
X22073116Y-5055116D02*
X22073116Y-4977885D01*
X21995885Y-4977885D01*
X21995885Y-5055116D01*
X22073116Y-5055116D01*
X22073116Y-5309116D02*
X22073116Y-5231885D01*
X21995885Y-5231885D01*
X21995885Y-5309116D01*
X22073116Y-5309116D01*
X22073116Y-5563116D02*
X22073116Y-5485885D01*
X21995885Y-5485885D01*
X21995885Y-5563116D01*
X22073116Y-5563116D01*
X22073116Y-5817115D02*
X22073116Y-5739884D01*
X21995885Y-5739884D01*
X21995885Y-5817115D01*
X22073116Y-5817115D01*
X22073116Y-6071115D02*
X22073116Y-5993884D01*
X21995885Y-5993884D01*
X21995885Y-6071115D01*
X22073116Y-6071115D01*
X22073116Y-6325115D02*
X22073116Y-6247884D01*
X21995885Y-6247884D01*
X21995885Y-6325115D01*
X22073116Y-6325115D01*
X22073116Y-6579115D02*
X22073116Y-6501884D01*
X21995885Y-6501884D01*
X21995885Y-6579115D01*
X22073116Y-6579115D01*
D11*
X20070277Y-8759484D02*
X20070277Y-8559484D01*
X20070277Y-8559484D02*
X20117896Y-8559484D01*
X20117896Y-8559484D02*
X20146467Y-8569008D01*
X20146467Y-8569008D02*
X20165515Y-8588055D01*
X20165515Y-8588055D02*
X20175039Y-8607103D01*
X20175039Y-8607103D02*
X20184563Y-8645198D01*
X20184563Y-8645198D02*
X20184563Y-8673770D01*
X20184563Y-8673770D02*
X20175039Y-8711865D01*
X20175039Y-8711865D02*
X20165515Y-8730912D01*
X20165515Y-8730912D02*
X20146467Y-8749960D01*
X20146467Y-8749960D02*
X20117896Y-8759484D01*
X20117896Y-8759484D02*
X20070277Y-8759484D01*
X20270277Y-8759484D02*
X20270277Y-8626150D01*
X20270277Y-8664246D02*
X20279801Y-8645198D01*
X20279801Y-8645198D02*
X20289324Y-8635674D01*
X20289324Y-8635674D02*
X20308372Y-8626150D01*
X20308372Y-8626150D02*
X20327420Y-8626150D01*
X20394086Y-8759484D02*
X20394086Y-8626150D01*
X20394086Y-8559484D02*
X20384563Y-8569008D01*
X20384563Y-8569008D02*
X20394086Y-8578531D01*
X20394086Y-8578531D02*
X20403610Y-8569008D01*
X20403610Y-8569008D02*
X20394086Y-8559484D01*
X20394086Y-8559484D02*
X20394086Y-8578531D01*
X20517896Y-8759484D02*
X20498848Y-8749960D01*
X20498848Y-8749960D02*
X20489324Y-8730912D01*
X20489324Y-8730912D02*
X20489324Y-8559484D01*
X20622658Y-8759484D02*
X20603610Y-8749960D01*
X20603610Y-8749960D02*
X20594086Y-8730912D01*
X20594086Y-8730912D02*
X20594086Y-8559484D01*
X20851229Y-8759484D02*
X20851229Y-8559484D01*
X20851229Y-8559484D02*
X20917896Y-8702341D01*
X20917896Y-8702341D02*
X20984563Y-8559484D01*
X20984563Y-8559484D02*
X20984563Y-8759484D01*
X21165515Y-8759484D02*
X21165515Y-8654722D01*
X21165515Y-8654722D02*
X21155991Y-8635674D01*
X21155991Y-8635674D02*
X21136944Y-8626150D01*
X21136944Y-8626150D02*
X21098848Y-8626150D01*
X21098848Y-8626150D02*
X21079801Y-8635674D01*
X21165515Y-8749960D02*
X21146467Y-8759484D01*
X21146467Y-8759484D02*
X21098848Y-8759484D01*
X21098848Y-8759484D02*
X21079801Y-8749960D01*
X21079801Y-8749960D02*
X21070277Y-8730912D01*
X21070277Y-8730912D02*
X21070277Y-8711865D01*
X21070277Y-8711865D02*
X21079801Y-8692817D01*
X21079801Y-8692817D02*
X21098848Y-8683293D01*
X21098848Y-8683293D02*
X21146467Y-8683293D01*
X21146467Y-8683293D02*
X21165515Y-8673770D01*
X21260753Y-8626150D02*
X21260753Y-8826150D01*
X21260753Y-8635674D02*
X21279801Y-8626150D01*
X21279801Y-8626150D02*
X21317896Y-8626150D01*
X21317896Y-8626150D02*
X21336944Y-8635674D01*
X21336944Y-8635674D02*
X21346467Y-8645198D01*
X21346467Y-8645198D02*
X21355991Y-8664246D01*
X21355991Y-8664246D02*
X21355991Y-8721389D01*
X21355991Y-8721389D02*
X21346467Y-8740436D01*
X21346467Y-8740436D02*
X21336944Y-8749960D01*
X21336944Y-8749960D02*
X21317896Y-8759484D01*
X21317896Y-8759484D02*
X21279801Y-8759484D01*
X21279801Y-8759484D02*
X21260753Y-8749960D01*
X21441705Y-8740436D02*
X21451229Y-8749960D01*
X21451229Y-8749960D02*
X21441705Y-8759484D01*
X21441705Y-8759484D02*
X21432182Y-8749960D01*
X21432182Y-8749960D02*
X21441705Y-8740436D01*
X21441705Y-8740436D02*
X21441705Y-8759484D01*
X21441705Y-8635674D02*
X21451229Y-8645198D01*
X21451229Y-8645198D02*
X21441705Y-8654722D01*
X21441705Y-8654722D02*
X21432182Y-8645198D01*
X21432182Y-8645198D02*
X21441705Y-8635674D01*
X21441705Y-8635674D02*
X21441705Y-8654722D01*
D12*
X19729500Y-9048000D02*
X19809500Y-9128000D01*
X19809500Y-9048000D02*
X19729500Y-9128000D01*
D11*
X20108372Y-8979484D02*
X20127420Y-8979484D01*
X20127420Y-8979484D02*
X20146467Y-8989008D01*
X20146467Y-8989008D02*
X20155991Y-8998531D01*
X20155991Y-8998531D02*
X20165515Y-9017579D01*
X20165515Y-9017579D02*
X20175039Y-9055674D01*
X20175039Y-9055674D02*
X20175039Y-9103293D01*
X20175039Y-9103293D02*
X20165515Y-9141389D01*
X20165515Y-9141389D02*
X20155991Y-9160436D01*
X20155991Y-9160436D02*
X20146467Y-9169960D01*
X20146467Y-9169960D02*
X20127420Y-9179484D01*
X20127420Y-9179484D02*
X20108372Y-9179484D01*
X20108372Y-9179484D02*
X20089324Y-9169960D01*
X20089324Y-9169960D02*
X20079801Y-9160436D01*
X20079801Y-9160436D02*
X20070277Y-9141389D01*
X20070277Y-9141389D02*
X20060753Y-9103293D01*
X20060753Y-9103293D02*
X20060753Y-9055674D01*
X20060753Y-9055674D02*
X20070277Y-9017579D01*
X20070277Y-9017579D02*
X20079801Y-8998531D01*
X20079801Y-8998531D02*
X20089324Y-8989008D01*
X20089324Y-8989008D02*
X20108372Y-8979484D01*
X20260753Y-9160436D02*
X20270277Y-9169960D01*
X20270277Y-9169960D02*
X20260753Y-9179484D01*
X20260753Y-9179484D02*
X20251229Y-9169960D01*
X20251229Y-9169960D02*
X20260753Y-9160436D01*
X20260753Y-9160436D02*
X20260753Y-9179484D01*
X20384563Y-9065198D02*
X20365515Y-9055674D01*
X20365515Y-9055674D02*
X20355991Y-9046150D01*
X20355991Y-9046150D02*
X20346467Y-9027103D01*
X20346467Y-9027103D02*
X20346467Y-9017579D01*
X20346467Y-9017579D02*
X20355991Y-8998531D01*
X20355991Y-8998531D02*
X20365515Y-8989008D01*
X20365515Y-8989008D02*
X20384563Y-8979484D01*
X20384563Y-8979484D02*
X20422658Y-8979484D01*
X20422658Y-8979484D02*
X20441705Y-8989008D01*
X20441705Y-8989008D02*
X20451229Y-8998531D01*
X20451229Y-8998531D02*
X20460753Y-9017579D01*
X20460753Y-9017579D02*
X20460753Y-9027103D01*
X20460753Y-9027103D02*
X20451229Y-9046150D01*
X20451229Y-9046150D02*
X20441705Y-9055674D01*
X20441705Y-9055674D02*
X20422658Y-9065198D01*
X20422658Y-9065198D02*
X20384563Y-9065198D01*
X20384563Y-9065198D02*
X20365515Y-9074722D01*
X20365515Y-9074722D02*
X20355991Y-9084246D01*
X20355991Y-9084246D02*
X20346467Y-9103293D01*
X20346467Y-9103293D02*
X20346467Y-9141389D01*
X20346467Y-9141389D02*
X20355991Y-9160436D01*
X20355991Y-9160436D02*
X20365515Y-9169960D01*
X20365515Y-9169960D02*
X20384563Y-9179484D01*
X20384563Y-9179484D02*
X20422658Y-9179484D01*
X20422658Y-9179484D02*
X20441705Y-9169960D01*
X20441705Y-9169960D02*
X20451229Y-9160436D01*
X20451229Y-9160436D02*
X20460753Y-9141389D01*
X20460753Y-9141389D02*
X20460753Y-9103293D01*
X20460753Y-9103293D02*
X20451229Y-9084246D01*
X20451229Y-9084246D02*
X20441705Y-9074722D01*
X20441705Y-9074722D02*
X20422658Y-9065198D01*
X20584563Y-8979484D02*
X20603610Y-8979484D01*
X20603610Y-8979484D02*
X20622658Y-8989008D01*
X20622658Y-8989008D02*
X20632182Y-8998531D01*
X20632182Y-8998531D02*
X20641705Y-9017579D01*
X20641705Y-9017579D02*
X20651229Y-9055674D01*
X20651229Y-9055674D02*
X20651229Y-9103293D01*
X20651229Y-9103293D02*
X20641705Y-9141389D01*
X20641705Y-9141389D02*
X20632182Y-9160436D01*
X20632182Y-9160436D02*
X20622658Y-9169960D01*
X20622658Y-9169960D02*
X20603610Y-9179484D01*
X20603610Y-9179484D02*
X20584563Y-9179484D01*
X20584563Y-9179484D02*
X20565515Y-9169960D01*
X20565515Y-9169960D02*
X20555991Y-9160436D01*
X20555991Y-9160436D02*
X20546467Y-9141389D01*
X20546467Y-9141389D02*
X20536944Y-9103293D01*
X20536944Y-9103293D02*
X20536944Y-9055674D01*
X20536944Y-9055674D02*
X20546467Y-9017579D01*
X20546467Y-9017579D02*
X20555991Y-8998531D01*
X20555991Y-8998531D02*
X20565515Y-8989008D01*
X20565515Y-8989008D02*
X20584563Y-8979484D01*
X20775039Y-8979484D02*
X20794086Y-8979484D01*
X20794086Y-8979484D02*
X20813134Y-8989008D01*
X20813134Y-8989008D02*
X20822658Y-8998531D01*
X20822658Y-8998531D02*
X20832182Y-9017579D01*
X20832182Y-9017579D02*
X20841705Y-9055674D01*
X20841705Y-9055674D02*
X20841705Y-9103293D01*
X20841705Y-9103293D02*
X20832182Y-9141389D01*
X20832182Y-9141389D02*
X20822658Y-9160436D01*
X20822658Y-9160436D02*
X20813134Y-9169960D01*
X20813134Y-9169960D02*
X20794086Y-9179484D01*
X20794086Y-9179484D02*
X20775039Y-9179484D01*
X20775039Y-9179484D02*
X20755991Y-9169960D01*
X20755991Y-9169960D02*
X20746467Y-9160436D01*
X20746467Y-9160436D02*
X20736944Y-9141389D01*
X20736944Y-9141389D02*
X20727420Y-9103293D01*
X20727420Y-9103293D02*
X20727420Y-9055674D01*
X20727420Y-9055674D02*
X20736944Y-9017579D01*
X20736944Y-9017579D02*
X20746467Y-8998531D01*
X20746467Y-8998531D02*
X20755991Y-8989008D01*
X20755991Y-8989008D02*
X20775039Y-8979484D01*
X20927420Y-9179484D02*
X20927420Y-9046150D01*
X20927420Y-9065198D02*
X20936944Y-9055674D01*
X20936944Y-9055674D02*
X20955991Y-9046150D01*
X20955991Y-9046150D02*
X20984563Y-9046150D01*
X20984563Y-9046150D02*
X21003610Y-9055674D01*
X21003610Y-9055674D02*
X21013134Y-9074722D01*
X21013134Y-9074722D02*
X21013134Y-9179484D01*
X21013134Y-9074722D02*
X21022658Y-9055674D01*
X21022658Y-9055674D02*
X21041705Y-9046150D01*
X21041705Y-9046150D02*
X21070277Y-9046150D01*
X21070277Y-9046150D02*
X21089325Y-9055674D01*
X21089325Y-9055674D02*
X21098848Y-9074722D01*
X21098848Y-9074722D02*
X21098848Y-9179484D01*
X21194086Y-9179484D02*
X21194086Y-9046150D01*
X21194086Y-9065198D02*
X21203610Y-9055674D01*
X21203610Y-9055674D02*
X21222658Y-9046150D01*
X21222658Y-9046150D02*
X21251229Y-9046150D01*
X21251229Y-9046150D02*
X21270277Y-9055674D01*
X21270277Y-9055674D02*
X21279801Y-9074722D01*
X21279801Y-9074722D02*
X21279801Y-9179484D01*
X21279801Y-9074722D02*
X21289325Y-9055674D01*
X21289325Y-9055674D02*
X21308372Y-9046150D01*
X21308372Y-9046150D02*
X21336944Y-9046150D01*
X21336944Y-9046150D02*
X21355991Y-9055674D01*
X21355991Y-9055674D02*
X21365515Y-9074722D01*
X21365515Y-9074722D02*
X21365515Y-9179484D01*
X21755991Y-8969960D02*
X21584563Y-9227103D01*
X22013134Y-8979484D02*
X22032182Y-8979484D01*
X22032182Y-8979484D02*
X22051229Y-8989008D01*
X22051229Y-8989008D02*
X22060753Y-8998531D01*
X22060753Y-8998531D02*
X22070277Y-9017579D01*
X22070277Y-9017579D02*
X22079801Y-9055674D01*
X22079801Y-9055674D02*
X22079801Y-9103293D01*
X22079801Y-9103293D02*
X22070277Y-9141389D01*
X22070277Y-9141389D02*
X22060753Y-9160436D01*
X22060753Y-9160436D02*
X22051229Y-9169960D01*
X22051229Y-9169960D02*
X22032182Y-9179484D01*
X22032182Y-9179484D02*
X22013134Y-9179484D01*
X22013134Y-9179484D02*
X21994087Y-9169960D01*
X21994087Y-9169960D02*
X21984563Y-9160436D01*
X21984563Y-9160436D02*
X21975039Y-9141389D01*
X21975039Y-9141389D02*
X21965515Y-9103293D01*
X21965515Y-9103293D02*
X21965515Y-9055674D01*
X21965515Y-9055674D02*
X21975039Y-9017579D01*
X21975039Y-9017579D02*
X21984563Y-8998531D01*
X21984563Y-8998531D02*
X21994087Y-8989008D01*
X21994087Y-8989008D02*
X22013134Y-8979484D01*
X22165515Y-9160436D02*
X22175039Y-9169960D01*
X22175039Y-9169960D02*
X22165515Y-9179484D01*
X22165515Y-9179484D02*
X22155991Y-9169960D01*
X22155991Y-9169960D02*
X22165515Y-9160436D01*
X22165515Y-9160436D02*
X22165515Y-9179484D01*
X22298848Y-8979484D02*
X22317896Y-8979484D01*
X22317896Y-8979484D02*
X22336944Y-8989008D01*
X22336944Y-8989008D02*
X22346468Y-8998531D01*
X22346468Y-8998531D02*
X22355991Y-9017579D01*
X22355991Y-9017579D02*
X22365515Y-9055674D01*
X22365515Y-9055674D02*
X22365515Y-9103293D01*
X22365515Y-9103293D02*
X22355991Y-9141389D01*
X22355991Y-9141389D02*
X22346468Y-9160436D01*
X22346468Y-9160436D02*
X22336944Y-9169960D01*
X22336944Y-9169960D02*
X22317896Y-9179484D01*
X22317896Y-9179484D02*
X22298848Y-9179484D01*
X22298848Y-9179484D02*
X22279801Y-9169960D01*
X22279801Y-9169960D02*
X22270277Y-9160436D01*
X22270277Y-9160436D02*
X22260753Y-9141389D01*
X22260753Y-9141389D02*
X22251229Y-9103293D01*
X22251229Y-9103293D02*
X22251229Y-9055674D01*
X22251229Y-9055674D02*
X22260753Y-9017579D01*
X22260753Y-9017579D02*
X22270277Y-8998531D01*
X22270277Y-8998531D02*
X22279801Y-8989008D01*
X22279801Y-8989008D02*
X22298848Y-8979484D01*
X22432182Y-8979484D02*
X22555991Y-8979484D01*
X22555991Y-8979484D02*
X22489325Y-9055674D01*
X22489325Y-9055674D02*
X22517896Y-9055674D01*
X22517896Y-9055674D02*
X22536944Y-9065198D01*
X22536944Y-9065198D02*
X22546467Y-9074722D01*
X22546467Y-9074722D02*
X22555991Y-9093770D01*
X22555991Y-9093770D02*
X22555991Y-9141389D01*
X22555991Y-9141389D02*
X22546467Y-9160436D01*
X22546467Y-9160436D02*
X22536944Y-9169960D01*
X22536944Y-9169960D02*
X22517896Y-9179484D01*
X22517896Y-9179484D02*
X22460753Y-9179484D01*
X22460753Y-9179484D02*
X22441706Y-9169960D01*
X22441706Y-9169960D02*
X22432182Y-9160436D01*
X22746467Y-9179484D02*
X22632182Y-9179484D01*
X22689325Y-9179484D02*
X22689325Y-8979484D01*
X22689325Y-8979484D02*
X22670277Y-9008055D01*
X22670277Y-9008055D02*
X22651229Y-9027103D01*
X22651229Y-9027103D02*
X22632182Y-9036627D01*
X22927420Y-8979484D02*
X22832182Y-8979484D01*
X22832182Y-8979484D02*
X22822658Y-9074722D01*
X22822658Y-9074722D02*
X22832182Y-9065198D01*
X22832182Y-9065198D02*
X22851229Y-9055674D01*
X22851229Y-9055674D02*
X22898848Y-9055674D01*
X22898848Y-9055674D02*
X22917896Y-9065198D01*
X22917896Y-9065198D02*
X22927420Y-9074722D01*
X22927420Y-9074722D02*
X22936944Y-9093770D01*
X22936944Y-9093770D02*
X22936944Y-9141389D01*
X22936944Y-9141389D02*
X22927420Y-9160436D01*
X22927420Y-9160436D02*
X22917896Y-9169960D01*
X22917896Y-9169960D02*
X22898848Y-9179484D01*
X22898848Y-9179484D02*
X22851229Y-9179484D01*
X22851229Y-9179484D02*
X22832182Y-9169960D01*
X22832182Y-9169960D02*
X22822658Y-9160436D01*
X23013134Y-8979484D02*
X23013134Y-9017579D01*
X23089325Y-8979484D02*
X23089325Y-9017579D01*
X23384563Y-9255674D02*
X23375039Y-9246150D01*
X23375039Y-9246150D02*
X23355991Y-9217579D01*
X23355991Y-9217579D02*
X23346468Y-9198531D01*
X23346468Y-9198531D02*
X23336944Y-9169960D01*
X23336944Y-9169960D02*
X23327420Y-9122341D01*
X23327420Y-9122341D02*
X23327420Y-9084246D01*
X23327420Y-9084246D02*
X23336944Y-9036627D01*
X23336944Y-9036627D02*
X23346468Y-9008055D01*
X23346468Y-9008055D02*
X23355991Y-8989008D01*
X23355991Y-8989008D02*
X23375039Y-8960436D01*
X23375039Y-8960436D02*
X23384563Y-8950912D01*
X23565515Y-9179484D02*
X23451229Y-9179484D01*
X23508372Y-9179484D02*
X23508372Y-8979484D01*
X23508372Y-8979484D02*
X23489325Y-9008055D01*
X23489325Y-9008055D02*
X23470277Y-9027103D01*
X23470277Y-9027103D02*
X23451229Y-9036627D01*
X23736944Y-8979484D02*
X23698848Y-8979484D01*
X23698848Y-8979484D02*
X23679801Y-8989008D01*
X23679801Y-8989008D02*
X23670277Y-8998531D01*
X23670277Y-8998531D02*
X23651229Y-9027103D01*
X23651229Y-9027103D02*
X23641706Y-9065198D01*
X23641706Y-9065198D02*
X23641706Y-9141389D01*
X23641706Y-9141389D02*
X23651229Y-9160436D01*
X23651229Y-9160436D02*
X23660753Y-9169960D01*
X23660753Y-9169960D02*
X23679801Y-9179484D01*
X23679801Y-9179484D02*
X23717896Y-9179484D01*
X23717896Y-9179484D02*
X23736944Y-9169960D01*
X23736944Y-9169960D02*
X23746468Y-9160436D01*
X23746468Y-9160436D02*
X23755991Y-9141389D01*
X23755991Y-9141389D02*
X23755991Y-9093770D01*
X23755991Y-9093770D02*
X23746468Y-9074722D01*
X23746468Y-9074722D02*
X23736944Y-9065198D01*
X23736944Y-9065198D02*
X23717896Y-9055674D01*
X23717896Y-9055674D02*
X23679801Y-9055674D01*
X23679801Y-9055674D02*
X23660753Y-9065198D01*
X23660753Y-9065198D02*
X23651229Y-9074722D01*
X23651229Y-9074722D02*
X23641706Y-9093770D01*
X23994087Y-9179484D02*
X23994087Y-8979484D01*
X24079801Y-9179484D02*
X24079801Y-9074722D01*
X24079801Y-9074722D02*
X24070277Y-9055674D01*
X24070277Y-9055674D02*
X24051230Y-9046150D01*
X24051230Y-9046150D02*
X24022658Y-9046150D01*
X24022658Y-9046150D02*
X24003610Y-9055674D01*
X24003610Y-9055674D02*
X23994087Y-9065198D01*
X24203610Y-9179484D02*
X24184563Y-9169960D01*
X24184563Y-9169960D02*
X24175039Y-9160436D01*
X24175039Y-9160436D02*
X24165515Y-9141389D01*
X24165515Y-9141389D02*
X24165515Y-9084246D01*
X24165515Y-9084246D02*
X24175039Y-9065198D01*
X24175039Y-9065198D02*
X24184563Y-9055674D01*
X24184563Y-9055674D02*
X24203610Y-9046150D01*
X24203610Y-9046150D02*
X24232182Y-9046150D01*
X24232182Y-9046150D02*
X24251230Y-9055674D01*
X24251230Y-9055674D02*
X24260753Y-9065198D01*
X24260753Y-9065198D02*
X24270277Y-9084246D01*
X24270277Y-9084246D02*
X24270277Y-9141389D01*
X24270277Y-9141389D02*
X24260753Y-9160436D01*
X24260753Y-9160436D02*
X24251230Y-9169960D01*
X24251230Y-9169960D02*
X24232182Y-9179484D01*
X24232182Y-9179484D02*
X24203610Y-9179484D01*
X24384563Y-9179484D02*
X24365515Y-9169960D01*
X24365515Y-9169960D02*
X24355991Y-9150912D01*
X24355991Y-9150912D02*
X24355991Y-8979484D01*
X24536944Y-9169960D02*
X24517896Y-9179484D01*
X24517896Y-9179484D02*
X24479801Y-9179484D01*
X24479801Y-9179484D02*
X24460753Y-9169960D01*
X24460753Y-9169960D02*
X24451230Y-9150912D01*
X24451230Y-9150912D02*
X24451230Y-9074722D01*
X24451230Y-9074722D02*
X24460753Y-9055674D01*
X24460753Y-9055674D02*
X24479801Y-9046150D01*
X24479801Y-9046150D02*
X24517896Y-9046150D01*
X24517896Y-9046150D02*
X24536944Y-9055674D01*
X24536944Y-9055674D02*
X24546468Y-9074722D01*
X24546468Y-9074722D02*
X24546468Y-9093770D01*
X24546468Y-9093770D02*
X24451230Y-9112817D01*
X24622658Y-9169960D02*
X24641706Y-9179484D01*
X24641706Y-9179484D02*
X24679801Y-9179484D01*
X24679801Y-9179484D02*
X24698849Y-9169960D01*
X24698849Y-9169960D02*
X24708372Y-9150912D01*
X24708372Y-9150912D02*
X24708372Y-9141389D01*
X24708372Y-9141389D02*
X24698849Y-9122341D01*
X24698849Y-9122341D02*
X24679801Y-9112817D01*
X24679801Y-9112817D02*
X24651230Y-9112817D01*
X24651230Y-9112817D02*
X24632182Y-9103293D01*
X24632182Y-9103293D02*
X24622658Y-9084246D01*
X24622658Y-9084246D02*
X24622658Y-9074722D01*
X24622658Y-9074722D02*
X24632182Y-9055674D01*
X24632182Y-9055674D02*
X24651230Y-9046150D01*
X24651230Y-9046150D02*
X24679801Y-9046150D01*
X24679801Y-9046150D02*
X24698849Y-9055674D01*
X24775039Y-9255674D02*
X24784563Y-9246150D01*
X24784563Y-9246150D02*
X24803611Y-9217579D01*
X24803611Y-9217579D02*
X24813134Y-9198531D01*
X24813134Y-9198531D02*
X24822658Y-9169960D01*
X24822658Y-9169960D02*
X24832182Y-9122341D01*
X24832182Y-9122341D02*
X24832182Y-9084246D01*
X24832182Y-9084246D02*
X24822658Y-9036627D01*
X24822658Y-9036627D02*
X24813134Y-9008055D01*
X24813134Y-9008055D02*
X24803611Y-8989008D01*
X24803611Y-8989008D02*
X24784563Y-8960436D01*
X24784563Y-8960436D02*
X24775039Y-8950912D01*
D12*
X19809500Y-9352000D02*
G75*
G02*
X19709500Y-9352000I-50000J0D01*
G01*
X19709500Y-9352000D02*
G75*
G02*
X19809500Y-9352000I50000J0D01*
G01*
D11*
X20175039Y-9443484D02*
X20060753Y-9443484D01*
X20117896Y-9443484D02*
X20117896Y-9243484D01*
X20117896Y-9243484D02*
X20098848Y-9272055D01*
X20098848Y-9272055D02*
X20079801Y-9291103D01*
X20079801Y-9291103D02*
X20060753Y-9300627D01*
X20260753Y-9424436D02*
X20270277Y-9433960D01*
X20270277Y-9433960D02*
X20260753Y-9443484D01*
X20260753Y-9443484D02*
X20251229Y-9433960D01*
X20251229Y-9433960D02*
X20260753Y-9424436D01*
X20260753Y-9424436D02*
X20260753Y-9443484D01*
X20394086Y-9243484D02*
X20413134Y-9243484D01*
X20413134Y-9243484D02*
X20432182Y-9253008D01*
X20432182Y-9253008D02*
X20441705Y-9262531D01*
X20441705Y-9262531D02*
X20451229Y-9281579D01*
X20451229Y-9281579D02*
X20460753Y-9319674D01*
X20460753Y-9319674D02*
X20460753Y-9367293D01*
X20460753Y-9367293D02*
X20451229Y-9405389D01*
X20451229Y-9405389D02*
X20441705Y-9424436D01*
X20441705Y-9424436D02*
X20432182Y-9433960D01*
X20432182Y-9433960D02*
X20413134Y-9443484D01*
X20413134Y-9443484D02*
X20394086Y-9443484D01*
X20394086Y-9443484D02*
X20375039Y-9433960D01*
X20375039Y-9433960D02*
X20365515Y-9424436D01*
X20365515Y-9424436D02*
X20355991Y-9405389D01*
X20355991Y-9405389D02*
X20346467Y-9367293D01*
X20346467Y-9367293D02*
X20346467Y-9319674D01*
X20346467Y-9319674D02*
X20355991Y-9281579D01*
X20355991Y-9281579D02*
X20365515Y-9262531D01*
X20365515Y-9262531D02*
X20375039Y-9253008D01*
X20375039Y-9253008D02*
X20394086Y-9243484D01*
X20584563Y-9243484D02*
X20603610Y-9243484D01*
X20603610Y-9243484D02*
X20622658Y-9253008D01*
X20622658Y-9253008D02*
X20632182Y-9262531D01*
X20632182Y-9262531D02*
X20641705Y-9281579D01*
X20641705Y-9281579D02*
X20651229Y-9319674D01*
X20651229Y-9319674D02*
X20651229Y-9367293D01*
X20651229Y-9367293D02*
X20641705Y-9405389D01*
X20641705Y-9405389D02*
X20632182Y-9424436D01*
X20632182Y-9424436D02*
X20622658Y-9433960D01*
X20622658Y-9433960D02*
X20603610Y-9443484D01*
X20603610Y-9443484D02*
X20584563Y-9443484D01*
X20584563Y-9443484D02*
X20565515Y-9433960D01*
X20565515Y-9433960D02*
X20555991Y-9424436D01*
X20555991Y-9424436D02*
X20546467Y-9405389D01*
X20546467Y-9405389D02*
X20536944Y-9367293D01*
X20536944Y-9367293D02*
X20536944Y-9319674D01*
X20536944Y-9319674D02*
X20546467Y-9281579D01*
X20546467Y-9281579D02*
X20555991Y-9262531D01*
X20555991Y-9262531D02*
X20565515Y-9253008D01*
X20565515Y-9253008D02*
X20584563Y-9243484D01*
X20775039Y-9243484D02*
X20794086Y-9243484D01*
X20794086Y-9243484D02*
X20813134Y-9253008D01*
X20813134Y-9253008D02*
X20822658Y-9262531D01*
X20822658Y-9262531D02*
X20832182Y-9281579D01*
X20832182Y-9281579D02*
X20841705Y-9319674D01*
X20841705Y-9319674D02*
X20841705Y-9367293D01*
X20841705Y-9367293D02*
X20832182Y-9405389D01*
X20832182Y-9405389D02*
X20822658Y-9424436D01*
X20822658Y-9424436D02*
X20813134Y-9433960D01*
X20813134Y-9433960D02*
X20794086Y-9443484D01*
X20794086Y-9443484D02*
X20775039Y-9443484D01*
X20775039Y-9443484D02*
X20755991Y-9433960D01*
X20755991Y-9433960D02*
X20746467Y-9424436D01*
X20746467Y-9424436D02*
X20736944Y-9405389D01*
X20736944Y-9405389D02*
X20727420Y-9367293D01*
X20727420Y-9367293D02*
X20727420Y-9319674D01*
X20727420Y-9319674D02*
X20736944Y-9281579D01*
X20736944Y-9281579D02*
X20746467Y-9262531D01*
X20746467Y-9262531D02*
X20755991Y-9253008D01*
X20755991Y-9253008D02*
X20775039Y-9243484D01*
X20927420Y-9443484D02*
X20927420Y-9310150D01*
X20927420Y-9329198D02*
X20936944Y-9319674D01*
X20936944Y-9319674D02*
X20955991Y-9310150D01*
X20955991Y-9310150D02*
X20984563Y-9310150D01*
X20984563Y-9310150D02*
X21003610Y-9319674D01*
X21003610Y-9319674D02*
X21013134Y-9338722D01*
X21013134Y-9338722D02*
X21013134Y-9443484D01*
X21013134Y-9338722D02*
X21022658Y-9319674D01*
X21022658Y-9319674D02*
X21041705Y-9310150D01*
X21041705Y-9310150D02*
X21070277Y-9310150D01*
X21070277Y-9310150D02*
X21089325Y-9319674D01*
X21089325Y-9319674D02*
X21098848Y-9338722D01*
X21098848Y-9338722D02*
X21098848Y-9443484D01*
X21194086Y-9443484D02*
X21194086Y-9310150D01*
X21194086Y-9329198D02*
X21203610Y-9319674D01*
X21203610Y-9319674D02*
X21222658Y-9310150D01*
X21222658Y-9310150D02*
X21251229Y-9310150D01*
X21251229Y-9310150D02*
X21270277Y-9319674D01*
X21270277Y-9319674D02*
X21279801Y-9338722D01*
X21279801Y-9338722D02*
X21279801Y-9443484D01*
X21279801Y-9338722D02*
X21289325Y-9319674D01*
X21289325Y-9319674D02*
X21308372Y-9310150D01*
X21308372Y-9310150D02*
X21336944Y-9310150D01*
X21336944Y-9310150D02*
X21355991Y-9319674D01*
X21355991Y-9319674D02*
X21365515Y-9338722D01*
X21365515Y-9338722D02*
X21365515Y-9443484D01*
X21755991Y-9233960D02*
X21584563Y-9491103D01*
X22013134Y-9243484D02*
X22032182Y-9243484D01*
X22032182Y-9243484D02*
X22051229Y-9253008D01*
X22051229Y-9253008D02*
X22060753Y-9262531D01*
X22060753Y-9262531D02*
X22070277Y-9281579D01*
X22070277Y-9281579D02*
X22079801Y-9319674D01*
X22079801Y-9319674D02*
X22079801Y-9367293D01*
X22079801Y-9367293D02*
X22070277Y-9405389D01*
X22070277Y-9405389D02*
X22060753Y-9424436D01*
X22060753Y-9424436D02*
X22051229Y-9433960D01*
X22051229Y-9433960D02*
X22032182Y-9443484D01*
X22032182Y-9443484D02*
X22013134Y-9443484D01*
X22013134Y-9443484D02*
X21994087Y-9433960D01*
X21994087Y-9433960D02*
X21984563Y-9424436D01*
X21984563Y-9424436D02*
X21975039Y-9405389D01*
X21975039Y-9405389D02*
X21965515Y-9367293D01*
X21965515Y-9367293D02*
X21965515Y-9319674D01*
X21965515Y-9319674D02*
X21975039Y-9281579D01*
X21975039Y-9281579D02*
X21984563Y-9262531D01*
X21984563Y-9262531D02*
X21994087Y-9253008D01*
X21994087Y-9253008D02*
X22013134Y-9243484D01*
X22165515Y-9424436D02*
X22175039Y-9433960D01*
X22175039Y-9433960D02*
X22165515Y-9443484D01*
X22165515Y-9443484D02*
X22155991Y-9433960D01*
X22155991Y-9433960D02*
X22165515Y-9424436D01*
X22165515Y-9424436D02*
X22165515Y-9443484D01*
X22298848Y-9243484D02*
X22317896Y-9243484D01*
X22317896Y-9243484D02*
X22336944Y-9253008D01*
X22336944Y-9253008D02*
X22346468Y-9262531D01*
X22346468Y-9262531D02*
X22355991Y-9281579D01*
X22355991Y-9281579D02*
X22365515Y-9319674D01*
X22365515Y-9319674D02*
X22365515Y-9367293D01*
X22365515Y-9367293D02*
X22355991Y-9405389D01*
X22355991Y-9405389D02*
X22346468Y-9424436D01*
X22346468Y-9424436D02*
X22336944Y-9433960D01*
X22336944Y-9433960D02*
X22317896Y-9443484D01*
X22317896Y-9443484D02*
X22298848Y-9443484D01*
X22298848Y-9443484D02*
X22279801Y-9433960D01*
X22279801Y-9433960D02*
X22270277Y-9424436D01*
X22270277Y-9424436D02*
X22260753Y-9405389D01*
X22260753Y-9405389D02*
X22251229Y-9367293D01*
X22251229Y-9367293D02*
X22251229Y-9319674D01*
X22251229Y-9319674D02*
X22260753Y-9281579D01*
X22260753Y-9281579D02*
X22270277Y-9262531D01*
X22270277Y-9262531D02*
X22279801Y-9253008D01*
X22279801Y-9253008D02*
X22298848Y-9243484D01*
X22432182Y-9243484D02*
X22555991Y-9243484D01*
X22555991Y-9243484D02*
X22489325Y-9319674D01*
X22489325Y-9319674D02*
X22517896Y-9319674D01*
X22517896Y-9319674D02*
X22536944Y-9329198D01*
X22536944Y-9329198D02*
X22546467Y-9338722D01*
X22546467Y-9338722D02*
X22555991Y-9357770D01*
X22555991Y-9357770D02*
X22555991Y-9405389D01*
X22555991Y-9405389D02*
X22546467Y-9424436D01*
X22546467Y-9424436D02*
X22536944Y-9433960D01*
X22536944Y-9433960D02*
X22517896Y-9443484D01*
X22517896Y-9443484D02*
X22460753Y-9443484D01*
X22460753Y-9443484D02*
X22441706Y-9433960D01*
X22441706Y-9433960D02*
X22432182Y-9424436D01*
X22651229Y-9443484D02*
X22689325Y-9443484D01*
X22689325Y-9443484D02*
X22708372Y-9433960D01*
X22708372Y-9433960D02*
X22717896Y-9424436D01*
X22717896Y-9424436D02*
X22736944Y-9395865D01*
X22736944Y-9395865D02*
X22746467Y-9357770D01*
X22746467Y-9357770D02*
X22746467Y-9281579D01*
X22746467Y-9281579D02*
X22736944Y-9262531D01*
X22736944Y-9262531D02*
X22727420Y-9253008D01*
X22727420Y-9253008D02*
X22708372Y-9243484D01*
X22708372Y-9243484D02*
X22670277Y-9243484D01*
X22670277Y-9243484D02*
X22651229Y-9253008D01*
X22651229Y-9253008D02*
X22641706Y-9262531D01*
X22641706Y-9262531D02*
X22632182Y-9281579D01*
X22632182Y-9281579D02*
X22632182Y-9329198D01*
X22632182Y-9329198D02*
X22641706Y-9348246D01*
X22641706Y-9348246D02*
X22651229Y-9357770D01*
X22651229Y-9357770D02*
X22670277Y-9367293D01*
X22670277Y-9367293D02*
X22708372Y-9367293D01*
X22708372Y-9367293D02*
X22727420Y-9357770D01*
X22727420Y-9357770D02*
X22736944Y-9348246D01*
X22736944Y-9348246D02*
X22746467Y-9329198D01*
X22917896Y-9310150D02*
X22917896Y-9443484D01*
X22870277Y-9233960D02*
X22822658Y-9376817D01*
X22822658Y-9376817D02*
X22946467Y-9376817D01*
X23013134Y-9243484D02*
X23013134Y-9281579D01*
X23089325Y-9243484D02*
X23089325Y-9281579D01*
X23384563Y-9519674D02*
X23375039Y-9510150D01*
X23375039Y-9510150D02*
X23355991Y-9481579D01*
X23355991Y-9481579D02*
X23346468Y-9462531D01*
X23346468Y-9462531D02*
X23336944Y-9433960D01*
X23336944Y-9433960D02*
X23327420Y-9386341D01*
X23327420Y-9386341D02*
X23327420Y-9348246D01*
X23327420Y-9348246D02*
X23336944Y-9300627D01*
X23336944Y-9300627D02*
X23346468Y-9272055D01*
X23346468Y-9272055D02*
X23355991Y-9253008D01*
X23355991Y-9253008D02*
X23375039Y-9224436D01*
X23375039Y-9224436D02*
X23384563Y-9214912D01*
X23441706Y-9243484D02*
X23575039Y-9243484D01*
X23575039Y-9243484D02*
X23489325Y-9443484D01*
X23803610Y-9443484D02*
X23803610Y-9243484D01*
X23889325Y-9443484D02*
X23889325Y-9338722D01*
X23889325Y-9338722D02*
X23879801Y-9319674D01*
X23879801Y-9319674D02*
X23860753Y-9310150D01*
X23860753Y-9310150D02*
X23832182Y-9310150D01*
X23832182Y-9310150D02*
X23813134Y-9319674D01*
X23813134Y-9319674D02*
X23803610Y-9329198D01*
X24013134Y-9443484D02*
X23994087Y-9433960D01*
X23994087Y-9433960D02*
X23984563Y-9424436D01*
X23984563Y-9424436D02*
X23975039Y-9405389D01*
X23975039Y-9405389D02*
X23975039Y-9348246D01*
X23975039Y-9348246D02*
X23984563Y-9329198D01*
X23984563Y-9329198D02*
X23994087Y-9319674D01*
X23994087Y-9319674D02*
X24013134Y-9310150D01*
X24013134Y-9310150D02*
X24041706Y-9310150D01*
X24041706Y-9310150D02*
X24060753Y-9319674D01*
X24060753Y-9319674D02*
X24070277Y-9329198D01*
X24070277Y-9329198D02*
X24079801Y-9348246D01*
X24079801Y-9348246D02*
X24079801Y-9405389D01*
X24079801Y-9405389D02*
X24070277Y-9424436D01*
X24070277Y-9424436D02*
X24060753Y-9433960D01*
X24060753Y-9433960D02*
X24041706Y-9443484D01*
X24041706Y-9443484D02*
X24013134Y-9443484D01*
X24194087Y-9443484D02*
X24175039Y-9433960D01*
X24175039Y-9433960D02*
X24165515Y-9414912D01*
X24165515Y-9414912D02*
X24165515Y-9243484D01*
X24346468Y-9433960D02*
X24327420Y-9443484D01*
X24327420Y-9443484D02*
X24289325Y-9443484D01*
X24289325Y-9443484D02*
X24270277Y-9433960D01*
X24270277Y-9433960D02*
X24260753Y-9414912D01*
X24260753Y-9414912D02*
X24260753Y-9338722D01*
X24260753Y-9338722D02*
X24270277Y-9319674D01*
X24270277Y-9319674D02*
X24289325Y-9310150D01*
X24289325Y-9310150D02*
X24327420Y-9310150D01*
X24327420Y-9310150D02*
X24346468Y-9319674D01*
X24346468Y-9319674D02*
X24355991Y-9338722D01*
X24355991Y-9338722D02*
X24355991Y-9357770D01*
X24355991Y-9357770D02*
X24260753Y-9376817D01*
X24432182Y-9433960D02*
X24451230Y-9443484D01*
X24451230Y-9443484D02*
X24489325Y-9443484D01*
X24489325Y-9443484D02*
X24508372Y-9433960D01*
X24508372Y-9433960D02*
X24517896Y-9414912D01*
X24517896Y-9414912D02*
X24517896Y-9405389D01*
X24517896Y-9405389D02*
X24508372Y-9386341D01*
X24508372Y-9386341D02*
X24489325Y-9376817D01*
X24489325Y-9376817D02*
X24460753Y-9376817D01*
X24460753Y-9376817D02*
X24441706Y-9367293D01*
X24441706Y-9367293D02*
X24432182Y-9348246D01*
X24432182Y-9348246D02*
X24432182Y-9338722D01*
X24432182Y-9338722D02*
X24441706Y-9319674D01*
X24441706Y-9319674D02*
X24460753Y-9310150D01*
X24460753Y-9310150D02*
X24489325Y-9310150D01*
X24489325Y-9310150D02*
X24508372Y-9319674D01*
X24584563Y-9519674D02*
X24594087Y-9510150D01*
X24594087Y-9510150D02*
X24613134Y-9481579D01*
X24613134Y-9481579D02*
X24622658Y-9462531D01*
X24622658Y-9462531D02*
X24632182Y-9433960D01*
X24632182Y-9433960D02*
X24641706Y-9386341D01*
X24641706Y-9386341D02*
X24641706Y-9348246D01*
X24641706Y-9348246D02*
X24632182Y-9300627D01*
X24632182Y-9300627D02*
X24622658Y-9272055D01*
X24622658Y-9272055D02*
X24613134Y-9253008D01*
X24613134Y-9253008D02*
X24594087Y-9224436D01*
X24594087Y-9224436D02*
X24584563Y-9214912D01*
D13*
X19758700Y-9565200D02*
X19758700Y-9666800D01*
X19707900Y-9616000D02*
X19809500Y-9616000D01*
D11*
X20175039Y-9707484D02*
X20060753Y-9707484D01*
X20117896Y-9707484D02*
X20117896Y-9507484D01*
X20117896Y-9507484D02*
X20098848Y-9536055D01*
X20098848Y-9536055D02*
X20079801Y-9555103D01*
X20079801Y-9555103D02*
X20060753Y-9564627D01*
X20260753Y-9688436D02*
X20270277Y-9697960D01*
X20270277Y-9697960D02*
X20260753Y-9707484D01*
X20260753Y-9707484D02*
X20251229Y-9697960D01*
X20251229Y-9697960D02*
X20260753Y-9688436D01*
X20260753Y-9688436D02*
X20260753Y-9707484D01*
X20394086Y-9507484D02*
X20413134Y-9507484D01*
X20413134Y-9507484D02*
X20432182Y-9517008D01*
X20432182Y-9517008D02*
X20441705Y-9526531D01*
X20441705Y-9526531D02*
X20451229Y-9545579D01*
X20451229Y-9545579D02*
X20460753Y-9583674D01*
X20460753Y-9583674D02*
X20460753Y-9631293D01*
X20460753Y-9631293D02*
X20451229Y-9669389D01*
X20451229Y-9669389D02*
X20441705Y-9688436D01*
X20441705Y-9688436D02*
X20432182Y-9697960D01*
X20432182Y-9697960D02*
X20413134Y-9707484D01*
X20413134Y-9707484D02*
X20394086Y-9707484D01*
X20394086Y-9707484D02*
X20375039Y-9697960D01*
X20375039Y-9697960D02*
X20365515Y-9688436D01*
X20365515Y-9688436D02*
X20355991Y-9669389D01*
X20355991Y-9669389D02*
X20346467Y-9631293D01*
X20346467Y-9631293D02*
X20346467Y-9583674D01*
X20346467Y-9583674D02*
X20355991Y-9545579D01*
X20355991Y-9545579D02*
X20365515Y-9526531D01*
X20365515Y-9526531D02*
X20375039Y-9517008D01*
X20375039Y-9517008D02*
X20394086Y-9507484D01*
X20651229Y-9707484D02*
X20536944Y-9707484D01*
X20594086Y-9707484D02*
X20594086Y-9507484D01*
X20594086Y-9507484D02*
X20575039Y-9536055D01*
X20575039Y-9536055D02*
X20555991Y-9555103D01*
X20555991Y-9555103D02*
X20536944Y-9564627D01*
X20822658Y-9507484D02*
X20784563Y-9507484D01*
X20784563Y-9507484D02*
X20765515Y-9517008D01*
X20765515Y-9517008D02*
X20755991Y-9526531D01*
X20755991Y-9526531D02*
X20736944Y-9555103D01*
X20736944Y-9555103D02*
X20727420Y-9593198D01*
X20727420Y-9593198D02*
X20727420Y-9669389D01*
X20727420Y-9669389D02*
X20736944Y-9688436D01*
X20736944Y-9688436D02*
X20746467Y-9697960D01*
X20746467Y-9697960D02*
X20765515Y-9707484D01*
X20765515Y-9707484D02*
X20803610Y-9707484D01*
X20803610Y-9707484D02*
X20822658Y-9697960D01*
X20822658Y-9697960D02*
X20832182Y-9688436D01*
X20832182Y-9688436D02*
X20841705Y-9669389D01*
X20841705Y-9669389D02*
X20841705Y-9621770D01*
X20841705Y-9621770D02*
X20832182Y-9602722D01*
X20832182Y-9602722D02*
X20822658Y-9593198D01*
X20822658Y-9593198D02*
X20803610Y-9583674D01*
X20803610Y-9583674D02*
X20765515Y-9583674D01*
X20765515Y-9583674D02*
X20746467Y-9593198D01*
X20746467Y-9593198D02*
X20736944Y-9602722D01*
X20736944Y-9602722D02*
X20727420Y-9621770D01*
X20927420Y-9707484D02*
X20927420Y-9574150D01*
X20927420Y-9593198D02*
X20936944Y-9583674D01*
X20936944Y-9583674D02*
X20955991Y-9574150D01*
X20955991Y-9574150D02*
X20984563Y-9574150D01*
X20984563Y-9574150D02*
X21003610Y-9583674D01*
X21003610Y-9583674D02*
X21013134Y-9602722D01*
X21013134Y-9602722D02*
X21013134Y-9707484D01*
X21013134Y-9602722D02*
X21022658Y-9583674D01*
X21022658Y-9583674D02*
X21041705Y-9574150D01*
X21041705Y-9574150D02*
X21070277Y-9574150D01*
X21070277Y-9574150D02*
X21089325Y-9583674D01*
X21089325Y-9583674D02*
X21098848Y-9602722D01*
X21098848Y-9602722D02*
X21098848Y-9707484D01*
X21194086Y-9707484D02*
X21194086Y-9574150D01*
X21194086Y-9593198D02*
X21203610Y-9583674D01*
X21203610Y-9583674D02*
X21222658Y-9574150D01*
X21222658Y-9574150D02*
X21251229Y-9574150D01*
X21251229Y-9574150D02*
X21270277Y-9583674D01*
X21270277Y-9583674D02*
X21279801Y-9602722D01*
X21279801Y-9602722D02*
X21279801Y-9707484D01*
X21279801Y-9602722D02*
X21289325Y-9583674D01*
X21289325Y-9583674D02*
X21308372Y-9574150D01*
X21308372Y-9574150D02*
X21336944Y-9574150D01*
X21336944Y-9574150D02*
X21355991Y-9583674D01*
X21355991Y-9583674D02*
X21365515Y-9602722D01*
X21365515Y-9602722D02*
X21365515Y-9707484D01*
X21755991Y-9497960D02*
X21584563Y-9755103D01*
X22013134Y-9507484D02*
X22032182Y-9507484D01*
X22032182Y-9507484D02*
X22051229Y-9517008D01*
X22051229Y-9517008D02*
X22060753Y-9526531D01*
X22060753Y-9526531D02*
X22070277Y-9545579D01*
X22070277Y-9545579D02*
X22079801Y-9583674D01*
X22079801Y-9583674D02*
X22079801Y-9631293D01*
X22079801Y-9631293D02*
X22070277Y-9669389D01*
X22070277Y-9669389D02*
X22060753Y-9688436D01*
X22060753Y-9688436D02*
X22051229Y-9697960D01*
X22051229Y-9697960D02*
X22032182Y-9707484D01*
X22032182Y-9707484D02*
X22013134Y-9707484D01*
X22013134Y-9707484D02*
X21994087Y-9697960D01*
X21994087Y-9697960D02*
X21984563Y-9688436D01*
X21984563Y-9688436D02*
X21975039Y-9669389D01*
X21975039Y-9669389D02*
X21965515Y-9631293D01*
X21965515Y-9631293D02*
X21965515Y-9583674D01*
X21965515Y-9583674D02*
X21975039Y-9545579D01*
X21975039Y-9545579D02*
X21984563Y-9526531D01*
X21984563Y-9526531D02*
X21994087Y-9517008D01*
X21994087Y-9517008D02*
X22013134Y-9507484D01*
X22165515Y-9688436D02*
X22175039Y-9697960D01*
X22175039Y-9697960D02*
X22165515Y-9707484D01*
X22165515Y-9707484D02*
X22155991Y-9697960D01*
X22155991Y-9697960D02*
X22165515Y-9688436D01*
X22165515Y-9688436D02*
X22165515Y-9707484D01*
X22298848Y-9507484D02*
X22317896Y-9507484D01*
X22317896Y-9507484D02*
X22336944Y-9517008D01*
X22336944Y-9517008D02*
X22346468Y-9526531D01*
X22346468Y-9526531D02*
X22355991Y-9545579D01*
X22355991Y-9545579D02*
X22365515Y-9583674D01*
X22365515Y-9583674D02*
X22365515Y-9631293D01*
X22365515Y-9631293D02*
X22355991Y-9669389D01*
X22355991Y-9669389D02*
X22346468Y-9688436D01*
X22346468Y-9688436D02*
X22336944Y-9697960D01*
X22336944Y-9697960D02*
X22317896Y-9707484D01*
X22317896Y-9707484D02*
X22298848Y-9707484D01*
X22298848Y-9707484D02*
X22279801Y-9697960D01*
X22279801Y-9697960D02*
X22270277Y-9688436D01*
X22270277Y-9688436D02*
X22260753Y-9669389D01*
X22260753Y-9669389D02*
X22251229Y-9631293D01*
X22251229Y-9631293D02*
X22251229Y-9583674D01*
X22251229Y-9583674D02*
X22260753Y-9545579D01*
X22260753Y-9545579D02*
X22270277Y-9526531D01*
X22270277Y-9526531D02*
X22279801Y-9517008D01*
X22279801Y-9517008D02*
X22298848Y-9507484D01*
X22536944Y-9574150D02*
X22536944Y-9707484D01*
X22489325Y-9497960D02*
X22441706Y-9640817D01*
X22441706Y-9640817D02*
X22565515Y-9640817D01*
X22679801Y-9507484D02*
X22698848Y-9507484D01*
X22698848Y-9507484D02*
X22717896Y-9517008D01*
X22717896Y-9517008D02*
X22727420Y-9526531D01*
X22727420Y-9526531D02*
X22736944Y-9545579D01*
X22736944Y-9545579D02*
X22746467Y-9583674D01*
X22746467Y-9583674D02*
X22746467Y-9631293D01*
X22746467Y-9631293D02*
X22736944Y-9669389D01*
X22736944Y-9669389D02*
X22727420Y-9688436D01*
X22727420Y-9688436D02*
X22717896Y-9697960D01*
X22717896Y-9697960D02*
X22698848Y-9707484D01*
X22698848Y-9707484D02*
X22679801Y-9707484D01*
X22679801Y-9707484D02*
X22660753Y-9697960D01*
X22660753Y-9697960D02*
X22651229Y-9688436D01*
X22651229Y-9688436D02*
X22641706Y-9669389D01*
X22641706Y-9669389D02*
X22632182Y-9631293D01*
X22632182Y-9631293D02*
X22632182Y-9583674D01*
X22632182Y-9583674D02*
X22641706Y-9545579D01*
X22641706Y-9545579D02*
X22651229Y-9526531D01*
X22651229Y-9526531D02*
X22660753Y-9517008D01*
X22660753Y-9517008D02*
X22679801Y-9507484D01*
X22870277Y-9507484D02*
X22889325Y-9507484D01*
X22889325Y-9507484D02*
X22908372Y-9517008D01*
X22908372Y-9517008D02*
X22917896Y-9526531D01*
X22917896Y-9526531D02*
X22927420Y-9545579D01*
X22927420Y-9545579D02*
X22936944Y-9583674D01*
X22936944Y-9583674D02*
X22936944Y-9631293D01*
X22936944Y-9631293D02*
X22927420Y-9669389D01*
X22927420Y-9669389D02*
X22917896Y-9688436D01*
X22917896Y-9688436D02*
X22908372Y-9697960D01*
X22908372Y-9697960D02*
X22889325Y-9707484D01*
X22889325Y-9707484D02*
X22870277Y-9707484D01*
X22870277Y-9707484D02*
X22851229Y-9697960D01*
X22851229Y-9697960D02*
X22841706Y-9688436D01*
X22841706Y-9688436D02*
X22832182Y-9669389D01*
X22832182Y-9669389D02*
X22822658Y-9631293D01*
X22822658Y-9631293D02*
X22822658Y-9583674D01*
X22822658Y-9583674D02*
X22832182Y-9545579D01*
X22832182Y-9545579D02*
X22841706Y-9526531D01*
X22841706Y-9526531D02*
X22851229Y-9517008D01*
X22851229Y-9517008D02*
X22870277Y-9507484D01*
X23013134Y-9507484D02*
X23013134Y-9545579D01*
X23089325Y-9507484D02*
X23089325Y-9545579D01*
X23384563Y-9783674D02*
X23375039Y-9774150D01*
X23375039Y-9774150D02*
X23355991Y-9745579D01*
X23355991Y-9745579D02*
X23346468Y-9726531D01*
X23346468Y-9726531D02*
X23336944Y-9697960D01*
X23336944Y-9697960D02*
X23327420Y-9650341D01*
X23327420Y-9650341D02*
X23327420Y-9612246D01*
X23327420Y-9612246D02*
X23336944Y-9564627D01*
X23336944Y-9564627D02*
X23346468Y-9536055D01*
X23346468Y-9536055D02*
X23355991Y-9517008D01*
X23355991Y-9517008D02*
X23375039Y-9488436D01*
X23375039Y-9488436D02*
X23384563Y-9478912D01*
X23565515Y-9707484D02*
X23451229Y-9707484D01*
X23508372Y-9707484D02*
X23508372Y-9507484D01*
X23508372Y-9507484D02*
X23489325Y-9536055D01*
X23489325Y-9536055D02*
X23470277Y-9555103D01*
X23470277Y-9555103D02*
X23451229Y-9564627D01*
X23641706Y-9526531D02*
X23651229Y-9517008D01*
X23651229Y-9517008D02*
X23670277Y-9507484D01*
X23670277Y-9507484D02*
X23717896Y-9507484D01*
X23717896Y-9507484D02*
X23736944Y-9517008D01*
X23736944Y-9517008D02*
X23746468Y-9526531D01*
X23746468Y-9526531D02*
X23755991Y-9545579D01*
X23755991Y-9545579D02*
X23755991Y-9564627D01*
X23755991Y-9564627D02*
X23746468Y-9593198D01*
X23746468Y-9593198D02*
X23632182Y-9707484D01*
X23632182Y-9707484D02*
X23755991Y-9707484D01*
X23994087Y-9707484D02*
X23994087Y-9507484D01*
X24079801Y-9707484D02*
X24079801Y-9602722D01*
X24079801Y-9602722D02*
X24070277Y-9583674D01*
X24070277Y-9583674D02*
X24051230Y-9574150D01*
X24051230Y-9574150D02*
X24022658Y-9574150D01*
X24022658Y-9574150D02*
X24003610Y-9583674D01*
X24003610Y-9583674D02*
X23994087Y-9593198D01*
X24203610Y-9707484D02*
X24184563Y-9697960D01*
X24184563Y-9697960D02*
X24175039Y-9688436D01*
X24175039Y-9688436D02*
X24165515Y-9669389D01*
X24165515Y-9669389D02*
X24165515Y-9612246D01*
X24165515Y-9612246D02*
X24175039Y-9593198D01*
X24175039Y-9593198D02*
X24184563Y-9583674D01*
X24184563Y-9583674D02*
X24203610Y-9574150D01*
X24203610Y-9574150D02*
X24232182Y-9574150D01*
X24232182Y-9574150D02*
X24251230Y-9583674D01*
X24251230Y-9583674D02*
X24260753Y-9593198D01*
X24260753Y-9593198D02*
X24270277Y-9612246D01*
X24270277Y-9612246D02*
X24270277Y-9669389D01*
X24270277Y-9669389D02*
X24260753Y-9688436D01*
X24260753Y-9688436D02*
X24251230Y-9697960D01*
X24251230Y-9697960D02*
X24232182Y-9707484D01*
X24232182Y-9707484D02*
X24203610Y-9707484D01*
X24384563Y-9707484D02*
X24365515Y-9697960D01*
X24365515Y-9697960D02*
X24355991Y-9678912D01*
X24355991Y-9678912D02*
X24355991Y-9507484D01*
X24536944Y-9697960D02*
X24517896Y-9707484D01*
X24517896Y-9707484D02*
X24479801Y-9707484D01*
X24479801Y-9707484D02*
X24460753Y-9697960D01*
X24460753Y-9697960D02*
X24451230Y-9678912D01*
X24451230Y-9678912D02*
X24451230Y-9602722D01*
X24451230Y-9602722D02*
X24460753Y-9583674D01*
X24460753Y-9583674D02*
X24479801Y-9574150D01*
X24479801Y-9574150D02*
X24517896Y-9574150D01*
X24517896Y-9574150D02*
X24536944Y-9583674D01*
X24536944Y-9583674D02*
X24546468Y-9602722D01*
X24546468Y-9602722D02*
X24546468Y-9621770D01*
X24546468Y-9621770D02*
X24451230Y-9640817D01*
X24622658Y-9697960D02*
X24641706Y-9707484D01*
X24641706Y-9707484D02*
X24679801Y-9707484D01*
X24679801Y-9707484D02*
X24698849Y-9697960D01*
X24698849Y-9697960D02*
X24708372Y-9678912D01*
X24708372Y-9678912D02*
X24708372Y-9669389D01*
X24708372Y-9669389D02*
X24698849Y-9650341D01*
X24698849Y-9650341D02*
X24679801Y-9640817D01*
X24679801Y-9640817D02*
X24651230Y-9640817D01*
X24651230Y-9640817D02*
X24632182Y-9631293D01*
X24632182Y-9631293D02*
X24622658Y-9612246D01*
X24622658Y-9612246D02*
X24622658Y-9602722D01*
X24622658Y-9602722D02*
X24632182Y-9583674D01*
X24632182Y-9583674D02*
X24651230Y-9574150D01*
X24651230Y-9574150D02*
X24679801Y-9574150D01*
X24679801Y-9574150D02*
X24698849Y-9583674D01*
X24775039Y-9783674D02*
X24784563Y-9774150D01*
X24784563Y-9774150D02*
X24803611Y-9745579D01*
X24803611Y-9745579D02*
X24813134Y-9726531D01*
X24813134Y-9726531D02*
X24822658Y-9697960D01*
X24822658Y-9697960D02*
X24832182Y-9650341D01*
X24832182Y-9650341D02*
X24832182Y-9612246D01*
X24832182Y-9612246D02*
X24822658Y-9564627D01*
X24822658Y-9564627D02*
X24813134Y-9536055D01*
X24813134Y-9536055D02*
X24803611Y-9517008D01*
X24803611Y-9517008D02*
X24784563Y-9488436D01*
X24784563Y-9488436D02*
X24775039Y-9478912D01*
D14*
X19793506Y-9918616D02*
X19793506Y-9841385D01*
X19716275Y-9841385D01*
X19716275Y-9918616D01*
X19793506Y-9918616D01*
D11*
X20175039Y-9971484D02*
X20060753Y-9971484D01*
X20117896Y-9971484D02*
X20117896Y-9771484D01*
X20117896Y-9771484D02*
X20098848Y-9800055D01*
X20098848Y-9800055D02*
X20079801Y-9819103D01*
X20079801Y-9819103D02*
X20060753Y-9828627D01*
X20260753Y-9952436D02*
X20270277Y-9961960D01*
X20270277Y-9961960D02*
X20260753Y-9971484D01*
X20260753Y-9971484D02*
X20251229Y-9961960D01*
X20251229Y-9961960D02*
X20260753Y-9952436D01*
X20260753Y-9952436D02*
X20260753Y-9971484D01*
X20394086Y-9771484D02*
X20413134Y-9771484D01*
X20413134Y-9771484D02*
X20432182Y-9781008D01*
X20432182Y-9781008D02*
X20441705Y-9790531D01*
X20441705Y-9790531D02*
X20451229Y-9809579D01*
X20451229Y-9809579D02*
X20460753Y-9847674D01*
X20460753Y-9847674D02*
X20460753Y-9895293D01*
X20460753Y-9895293D02*
X20451229Y-9933389D01*
X20451229Y-9933389D02*
X20441705Y-9952436D01*
X20441705Y-9952436D02*
X20432182Y-9961960D01*
X20432182Y-9961960D02*
X20413134Y-9971484D01*
X20413134Y-9971484D02*
X20394086Y-9971484D01*
X20394086Y-9971484D02*
X20375039Y-9961960D01*
X20375039Y-9961960D02*
X20365515Y-9952436D01*
X20365515Y-9952436D02*
X20355991Y-9933389D01*
X20355991Y-9933389D02*
X20346467Y-9895293D01*
X20346467Y-9895293D02*
X20346467Y-9847674D01*
X20346467Y-9847674D02*
X20355991Y-9809579D01*
X20355991Y-9809579D02*
X20365515Y-9790531D01*
X20365515Y-9790531D02*
X20375039Y-9781008D01*
X20375039Y-9781008D02*
X20394086Y-9771484D01*
X20555991Y-9971484D02*
X20594086Y-9971484D01*
X20594086Y-9971484D02*
X20613134Y-9961960D01*
X20613134Y-9961960D02*
X20622658Y-9952436D01*
X20622658Y-9952436D02*
X20641705Y-9923865D01*
X20641705Y-9923865D02*
X20651229Y-9885770D01*
X20651229Y-9885770D02*
X20651229Y-9809579D01*
X20651229Y-9809579D02*
X20641705Y-9790531D01*
X20641705Y-9790531D02*
X20632182Y-9781008D01*
X20632182Y-9781008D02*
X20613134Y-9771484D01*
X20613134Y-9771484D02*
X20575039Y-9771484D01*
X20575039Y-9771484D02*
X20555991Y-9781008D01*
X20555991Y-9781008D02*
X20546467Y-9790531D01*
X20546467Y-9790531D02*
X20536944Y-9809579D01*
X20536944Y-9809579D02*
X20536944Y-9857198D01*
X20536944Y-9857198D02*
X20546467Y-9876246D01*
X20546467Y-9876246D02*
X20555991Y-9885770D01*
X20555991Y-9885770D02*
X20575039Y-9895293D01*
X20575039Y-9895293D02*
X20613134Y-9895293D01*
X20613134Y-9895293D02*
X20632182Y-9885770D01*
X20632182Y-9885770D02*
X20641705Y-9876246D01*
X20641705Y-9876246D02*
X20651229Y-9857198D01*
X20727420Y-9790531D02*
X20736944Y-9781008D01*
X20736944Y-9781008D02*
X20755991Y-9771484D01*
X20755991Y-9771484D02*
X20803610Y-9771484D01*
X20803610Y-9771484D02*
X20822658Y-9781008D01*
X20822658Y-9781008D02*
X20832182Y-9790531D01*
X20832182Y-9790531D02*
X20841705Y-9809579D01*
X20841705Y-9809579D02*
X20841705Y-9828627D01*
X20841705Y-9828627D02*
X20832182Y-9857198D01*
X20832182Y-9857198D02*
X20717896Y-9971484D01*
X20717896Y-9971484D02*
X20841705Y-9971484D01*
X20927420Y-9971484D02*
X20927420Y-9838150D01*
X20927420Y-9857198D02*
X20936944Y-9847674D01*
X20936944Y-9847674D02*
X20955991Y-9838150D01*
X20955991Y-9838150D02*
X20984563Y-9838150D01*
X20984563Y-9838150D02*
X21003610Y-9847674D01*
X21003610Y-9847674D02*
X21013134Y-9866722D01*
X21013134Y-9866722D02*
X21013134Y-9971484D01*
X21013134Y-9866722D02*
X21022658Y-9847674D01*
X21022658Y-9847674D02*
X21041705Y-9838150D01*
X21041705Y-9838150D02*
X21070277Y-9838150D01*
X21070277Y-9838150D02*
X21089325Y-9847674D01*
X21089325Y-9847674D02*
X21098848Y-9866722D01*
X21098848Y-9866722D02*
X21098848Y-9971484D01*
X21194086Y-9971484D02*
X21194086Y-9838150D01*
X21194086Y-9857198D02*
X21203610Y-9847674D01*
X21203610Y-9847674D02*
X21222658Y-9838150D01*
X21222658Y-9838150D02*
X21251229Y-9838150D01*
X21251229Y-9838150D02*
X21270277Y-9847674D01*
X21270277Y-9847674D02*
X21279801Y-9866722D01*
X21279801Y-9866722D02*
X21279801Y-9971484D01*
X21279801Y-9866722D02*
X21289325Y-9847674D01*
X21289325Y-9847674D02*
X21308372Y-9838150D01*
X21308372Y-9838150D02*
X21336944Y-9838150D01*
X21336944Y-9838150D02*
X21355991Y-9847674D01*
X21355991Y-9847674D02*
X21365515Y-9866722D01*
X21365515Y-9866722D02*
X21365515Y-9971484D01*
X21755991Y-9761960D02*
X21584563Y-10019103D01*
X22013134Y-9771484D02*
X22032182Y-9771484D01*
X22032182Y-9771484D02*
X22051229Y-9781008D01*
X22051229Y-9781008D02*
X22060753Y-9790531D01*
X22060753Y-9790531D02*
X22070277Y-9809579D01*
X22070277Y-9809579D02*
X22079801Y-9847674D01*
X22079801Y-9847674D02*
X22079801Y-9895293D01*
X22079801Y-9895293D02*
X22070277Y-9933389D01*
X22070277Y-9933389D02*
X22060753Y-9952436D01*
X22060753Y-9952436D02*
X22051229Y-9961960D01*
X22051229Y-9961960D02*
X22032182Y-9971484D01*
X22032182Y-9971484D02*
X22013134Y-9971484D01*
X22013134Y-9971484D02*
X21994087Y-9961960D01*
X21994087Y-9961960D02*
X21984563Y-9952436D01*
X21984563Y-9952436D02*
X21975039Y-9933389D01*
X21975039Y-9933389D02*
X21965515Y-9895293D01*
X21965515Y-9895293D02*
X21965515Y-9847674D01*
X21965515Y-9847674D02*
X21975039Y-9809579D01*
X21975039Y-9809579D02*
X21984563Y-9790531D01*
X21984563Y-9790531D02*
X21994087Y-9781008D01*
X21994087Y-9781008D02*
X22013134Y-9771484D01*
X22165515Y-9952436D02*
X22175039Y-9961960D01*
X22175039Y-9961960D02*
X22165515Y-9971484D01*
X22165515Y-9971484D02*
X22155991Y-9961960D01*
X22155991Y-9961960D02*
X22165515Y-9952436D01*
X22165515Y-9952436D02*
X22165515Y-9971484D01*
X22298848Y-9771484D02*
X22317896Y-9771484D01*
X22317896Y-9771484D02*
X22336944Y-9781008D01*
X22336944Y-9781008D02*
X22346468Y-9790531D01*
X22346468Y-9790531D02*
X22355991Y-9809579D01*
X22355991Y-9809579D02*
X22365515Y-9847674D01*
X22365515Y-9847674D02*
X22365515Y-9895293D01*
X22365515Y-9895293D02*
X22355991Y-9933389D01*
X22355991Y-9933389D02*
X22346468Y-9952436D01*
X22346468Y-9952436D02*
X22336944Y-9961960D01*
X22336944Y-9961960D02*
X22317896Y-9971484D01*
X22317896Y-9971484D02*
X22298848Y-9971484D01*
X22298848Y-9971484D02*
X22279801Y-9961960D01*
X22279801Y-9961960D02*
X22270277Y-9952436D01*
X22270277Y-9952436D02*
X22260753Y-9933389D01*
X22260753Y-9933389D02*
X22251229Y-9895293D01*
X22251229Y-9895293D02*
X22251229Y-9847674D01*
X22251229Y-9847674D02*
X22260753Y-9809579D01*
X22260753Y-9809579D02*
X22270277Y-9790531D01*
X22270277Y-9790531D02*
X22279801Y-9781008D01*
X22279801Y-9781008D02*
X22298848Y-9771484D01*
X22536944Y-9838150D02*
X22536944Y-9971484D01*
X22489325Y-9761960D02*
X22441706Y-9904817D01*
X22441706Y-9904817D02*
X22565515Y-9904817D01*
X22622658Y-9771484D02*
X22746467Y-9771484D01*
X22746467Y-9771484D02*
X22679801Y-9847674D01*
X22679801Y-9847674D02*
X22708372Y-9847674D01*
X22708372Y-9847674D02*
X22727420Y-9857198D01*
X22727420Y-9857198D02*
X22736944Y-9866722D01*
X22736944Y-9866722D02*
X22746467Y-9885770D01*
X22746467Y-9885770D02*
X22746467Y-9933389D01*
X22746467Y-9933389D02*
X22736944Y-9952436D01*
X22736944Y-9952436D02*
X22727420Y-9961960D01*
X22727420Y-9961960D02*
X22708372Y-9971484D01*
X22708372Y-9971484D02*
X22651229Y-9971484D01*
X22651229Y-9971484D02*
X22632182Y-9961960D01*
X22632182Y-9961960D02*
X22622658Y-9952436D01*
X22870277Y-9771484D02*
X22889325Y-9771484D01*
X22889325Y-9771484D02*
X22908372Y-9781008D01*
X22908372Y-9781008D02*
X22917896Y-9790531D01*
X22917896Y-9790531D02*
X22927420Y-9809579D01*
X22927420Y-9809579D02*
X22936944Y-9847674D01*
X22936944Y-9847674D02*
X22936944Y-9895293D01*
X22936944Y-9895293D02*
X22927420Y-9933389D01*
X22927420Y-9933389D02*
X22917896Y-9952436D01*
X22917896Y-9952436D02*
X22908372Y-9961960D01*
X22908372Y-9961960D02*
X22889325Y-9971484D01*
X22889325Y-9971484D02*
X22870277Y-9971484D01*
X22870277Y-9971484D02*
X22851229Y-9961960D01*
X22851229Y-9961960D02*
X22841706Y-9952436D01*
X22841706Y-9952436D02*
X22832182Y-9933389D01*
X22832182Y-9933389D02*
X22822658Y-9895293D01*
X22822658Y-9895293D02*
X22822658Y-9847674D01*
X22822658Y-9847674D02*
X22832182Y-9809579D01*
X22832182Y-9809579D02*
X22841706Y-9790531D01*
X22841706Y-9790531D02*
X22851229Y-9781008D01*
X22851229Y-9781008D02*
X22870277Y-9771484D01*
X23013134Y-9771484D02*
X23013134Y-9809579D01*
X23089325Y-9771484D02*
X23089325Y-9809579D01*
X23384563Y-10047674D02*
X23375039Y-10038150D01*
X23375039Y-10038150D02*
X23355991Y-10009579D01*
X23355991Y-10009579D02*
X23346468Y-9990531D01*
X23346468Y-9990531D02*
X23336944Y-9961960D01*
X23336944Y-9961960D02*
X23327420Y-9914341D01*
X23327420Y-9914341D02*
X23327420Y-9876246D01*
X23327420Y-9876246D02*
X23336944Y-9828627D01*
X23336944Y-9828627D02*
X23346468Y-9800055D01*
X23346468Y-9800055D02*
X23355991Y-9781008D01*
X23355991Y-9781008D02*
X23375039Y-9752436D01*
X23375039Y-9752436D02*
X23384563Y-9742912D01*
X23451229Y-9790531D02*
X23460753Y-9781008D01*
X23460753Y-9781008D02*
X23479801Y-9771484D01*
X23479801Y-9771484D02*
X23527420Y-9771484D01*
X23527420Y-9771484D02*
X23546468Y-9781008D01*
X23546468Y-9781008D02*
X23555991Y-9790531D01*
X23555991Y-9790531D02*
X23565515Y-9809579D01*
X23565515Y-9809579D02*
X23565515Y-9828627D01*
X23565515Y-9828627D02*
X23555991Y-9857198D01*
X23555991Y-9857198D02*
X23441706Y-9971484D01*
X23441706Y-9971484D02*
X23565515Y-9971484D01*
X23736944Y-9838150D02*
X23736944Y-9971484D01*
X23689325Y-9761960D02*
X23641706Y-9904817D01*
X23641706Y-9904817D02*
X23765515Y-9904817D01*
X23994087Y-9971484D02*
X23994087Y-9771484D01*
X24079801Y-9971484D02*
X24079801Y-9866722D01*
X24079801Y-9866722D02*
X24070277Y-9847674D01*
X24070277Y-9847674D02*
X24051230Y-9838150D01*
X24051230Y-9838150D02*
X24022658Y-9838150D01*
X24022658Y-9838150D02*
X24003610Y-9847674D01*
X24003610Y-9847674D02*
X23994087Y-9857198D01*
X24203610Y-9971484D02*
X24184563Y-9961960D01*
X24184563Y-9961960D02*
X24175039Y-9952436D01*
X24175039Y-9952436D02*
X24165515Y-9933389D01*
X24165515Y-9933389D02*
X24165515Y-9876246D01*
X24165515Y-9876246D02*
X24175039Y-9857198D01*
X24175039Y-9857198D02*
X24184563Y-9847674D01*
X24184563Y-9847674D02*
X24203610Y-9838150D01*
X24203610Y-9838150D02*
X24232182Y-9838150D01*
X24232182Y-9838150D02*
X24251230Y-9847674D01*
X24251230Y-9847674D02*
X24260753Y-9857198D01*
X24260753Y-9857198D02*
X24270277Y-9876246D01*
X24270277Y-9876246D02*
X24270277Y-9933389D01*
X24270277Y-9933389D02*
X24260753Y-9952436D01*
X24260753Y-9952436D02*
X24251230Y-9961960D01*
X24251230Y-9961960D02*
X24232182Y-9971484D01*
X24232182Y-9971484D02*
X24203610Y-9971484D01*
X24384563Y-9971484D02*
X24365515Y-9961960D01*
X24365515Y-9961960D02*
X24355991Y-9942912D01*
X24355991Y-9942912D02*
X24355991Y-9771484D01*
X24536944Y-9961960D02*
X24517896Y-9971484D01*
X24517896Y-9971484D02*
X24479801Y-9971484D01*
X24479801Y-9971484D02*
X24460753Y-9961960D01*
X24460753Y-9961960D02*
X24451230Y-9942912D01*
X24451230Y-9942912D02*
X24451230Y-9866722D01*
X24451230Y-9866722D02*
X24460753Y-9847674D01*
X24460753Y-9847674D02*
X24479801Y-9838150D01*
X24479801Y-9838150D02*
X24517896Y-9838150D01*
X24517896Y-9838150D02*
X24536944Y-9847674D01*
X24536944Y-9847674D02*
X24546468Y-9866722D01*
X24546468Y-9866722D02*
X24546468Y-9885770D01*
X24546468Y-9885770D02*
X24451230Y-9904817D01*
X24622658Y-9961960D02*
X24641706Y-9971484D01*
X24641706Y-9971484D02*
X24679801Y-9971484D01*
X24679801Y-9971484D02*
X24698849Y-9961960D01*
X24698849Y-9961960D02*
X24708372Y-9942912D01*
X24708372Y-9942912D02*
X24708372Y-9933389D01*
X24708372Y-9933389D02*
X24698849Y-9914341D01*
X24698849Y-9914341D02*
X24679801Y-9904817D01*
X24679801Y-9904817D02*
X24651230Y-9904817D01*
X24651230Y-9904817D02*
X24632182Y-9895293D01*
X24632182Y-9895293D02*
X24622658Y-9876246D01*
X24622658Y-9876246D02*
X24622658Y-9866722D01*
X24622658Y-9866722D02*
X24632182Y-9847674D01*
X24632182Y-9847674D02*
X24651230Y-9838150D01*
X24651230Y-9838150D02*
X24679801Y-9838150D01*
X24679801Y-9838150D02*
X24698849Y-9847674D01*
X24775039Y-10047674D02*
X24784563Y-10038150D01*
X24784563Y-10038150D02*
X24803611Y-10009579D01*
X24803611Y-10009579D02*
X24813134Y-9990531D01*
X24813134Y-9990531D02*
X24822658Y-9961960D01*
X24822658Y-9961960D02*
X24832182Y-9914341D01*
X24832182Y-9914341D02*
X24832182Y-9876246D01*
X24832182Y-9876246D02*
X24822658Y-9828627D01*
X24822658Y-9828627D02*
X24813134Y-9800055D01*
X24813134Y-9800055D02*
X24803611Y-9781008D01*
X24803611Y-9781008D02*
X24784563Y-9752436D01*
X24784563Y-9752436D02*
X24775039Y-9742912D01*
M02*
